<?xml version="1.0" encoding="UTF-8" standalone="no"?>
<!DOCTYPE svg PUBLIC "-//W3C//DTD SVG 1.1//EN"
 "http://www.w3.org/Graphics/SVG/1.1/DTD/svg11.dtd">
<!-- Generated by graphviz version 2.43.0 (0)
 -->
<!-- Title: snakemake_dag Pages: 1 -->
<svg width="1253pt" height="1908pt"
 viewBox="0.00 0.00 1253.00 1908.00" xmlns="http://www.w3.org/2000/svg" xmlns:xlink="http://www.w3.org/1999/xlink">
<g id="graph0" class="graph" transform="scale(1 1) rotate(0) translate(4 1904)">
<title>snakemake_dag</title>
<polygon fill="white" stroke="transparent" points="-4,4 -4,-1904 1249,-1904 1249,4 -4,4"/>
<!-- 0 -->
<g id="node1" class="node">
<title>0</title>
<text text-anchor="start" x="814.5" y="-413.6" font-family="sans" font-weight="bold" font-size="18.00">all</text>
<text text-anchor="start" x="607.5" y="-389.8" font-family="sans" font-size="10.00"> </text>
<text text-anchor="start" x="611.5" y="-389.8" font-family="sans" font-weight="bold" font-size="14.00">↪ input</text>
<text text-anchor="start" x="669.5" y="-389.8" font-family="sans" font-size="10.00"> </text>
<text text-anchor="start" x="607.5" y="-370" font-family="monospace" font-size="10.00">results/hicpro_contacts_iced/BT549_rep1_GSM5098072/hic_results/matrix</text>
<text text-anchor="start" x="607.5" y="-352" font-family="monospace" font-size="10.00">results/hicpro_contacts_iced/BT549_rep2_GSM5098073/hic_results/matrix</text>
<text text-anchor="start" x="607.5" y="-334" font-family="monospace" font-size="10.00">results/hicpro_contacts_iced/HCC1954_rep1_GSM5098068/hic_results/matrix</text>
<text text-anchor="start" x="607.5" y="-316" font-family="monospace" font-size="10.00">results/hicpro_contacts_iced/HCC1954_rep2_GSM5098069/hic_results/matrix</text>
<text text-anchor="start" x="607.5" y="-298" font-family="monospace" font-size="10.00">results/hicpro_contacts_iced/HCC70_rep1_GSM5098070/hic_results/matrix</text>
<text text-anchor="start" x="607.5" y="-280" font-family="monospace" font-size="10.00">results/hicpro_contacts_iced/HCC70_rep2_GSM5098071/hic_results/matrix</text>
<text text-anchor="start" x="607.5" y="-262" font-family="monospace" font-size="10.00">results/hicpro_contacts_iced/HMEC_rep1_GSM5098062/hic_results/matrix</text>
<text text-anchor="start" x="607.5" y="-244" font-family="monospace" font-size="10.00">results/hicpro_contacts_iced/HMEC_rep2_GSM5098063/hic_results/matrix</text>
<text text-anchor="start" x="607.5" y="-226" font-family="monospace" font-size="10.00">results/hicpro_contacts_iced/Normal_Tissue1_GSM5098074/hic_results/matrix</text>
<text text-anchor="start" x="607.5" y="-208" font-family="monospace" font-size="10.00">results/hicpro_contacts_iced/Normal_Tissue2_GSM5098075/hic_results/matrix</text>
<text text-anchor="start" x="607.5" y="-190" font-family="monospace" font-size="10.00">results/hicpro_contacts_iced/Normal_Tissue3_GSM5098076/hic_results/matrix</text>
<text text-anchor="start" x="607.5" y="-172" font-family="monospace" font-size="10.00">results/hicpro_contacts_iced/Normal_Tissue4_GSM5098077/hic_results/matrix</text>
<text text-anchor="start" x="607.5" y="-154" font-family="monospace" font-size="10.00">results/hicpro_contacts_iced/Normal_Tissue5_GSM5098078/hic_results/matrix</text>
<text text-anchor="start" x="607.5" y="-136" font-family="monospace" font-size="10.00">results/hicpro_contacts_iced/T47D_rep1_GSM5098064/hic_results/matrix</text>
<text text-anchor="start" x="607.5" y="-118" font-family="monospace" font-size="10.00">results/hicpro_contacts_iced/T47D_rep2_GSM5098065/hic_results/matrix</text>
<text text-anchor="start" x="607.5" y="-100" font-family="monospace" font-size="10.00">results/hicpro_contacts_iced/TNBC_Tissue1_GSM5098079/hic_results/matrix</text>
<text text-anchor="start" x="607.5" y="-82" font-family="monospace" font-size="10.00">results/hicpro_contacts_iced/TNBC_Tissue2_GSM5098080/hic_results/matrix</text>
<text text-anchor="start" x="607.5" y="-64" font-family="monospace" font-size="10.00">results/hicpro_contacts_iced/TNBC_Tissue3_GSM5098082/hic_results/matrix</text>
<text text-anchor="start" x="607.5" y="-46" font-family="monospace" font-size="10.00">results/hicpro_contacts_iced/ZR7530_rep1_GSM5098066/hic_results/matrix</text>
<text text-anchor="start" x="607.5" y="-28" font-family="monospace" font-size="10.00">results/hicpro_contacts_iced/ZR7530_rep2_GSM5098067/hic_results/matrix</text>
<text text-anchor="start" x="1039.5" y="-10" font-family="sans" font-size="10.00"> &#160;</text>
<polygon fill="#57d9c6" stroke="#57d9c6" points="601.5,-404 601.5,-404 1053.5,-404 1053.5,-404 601.5,-404"/>
<polygon fill="#57d9c6" stroke="#57d9c6" points="601.5,-22 601.5,-22 1053.5,-22 1053.5,-22 601.5,-22"/>
<polygon fill="none" stroke="#57d9c6" stroke-width="2" points="601,-1 601,-433 1052,-433 1052,-1 601,-1"/>
</g>
<!-- 1 -->
<g id="node2" class="node">
<title>1</title>
<text text-anchor="start" x="723" y="-563.6" font-family="sans" font-weight="bold" font-size="18.00">hicpro_contacts_iced</text>
<text text-anchor="start" x="664.5" y="-539.8" font-family="sans" font-size="10.00"> </text>
<text text-anchor="start" x="668.5" y="-539.8" font-family="sans" font-weight="bold" font-size="14.00">↪ input</text>
<text text-anchor="start" x="726.5" y="-539.8" font-family="sans" font-size="10.00"> </text>
<text text-anchor="start" x="664.5" y="-520" font-family="monospace" font-size="10.00">results/hicpro_contacts_raw/{samp}/hic_results/matrix</text>
<text text-anchor="start" x="911.5" y="-499.8" font-family="sans" font-size="10.00"> </text>
<text text-anchor="start" x="915.5" y="-499.8" font-family="sans" font-weight="bold" font-size="14.00">output →</text>
<text text-anchor="start" x="985.5" y="-499.8" font-family="sans" font-size="10.00"> </text>
<text text-anchor="start" x="664.5" y="-480" font-family="monospace" font-size="10.00">results/hicpro_contacts_iced/{samp}/hic_results/matrix</text>
<polygon fill="#57d97c" stroke="#57d97c" points="658.5,-554 658.5,-554 996.5,-554 996.5,-554 658.5,-554"/>
<polygon fill="#57d97c" stroke="#57d97c" points="658.5,-514 658.5,-514 996.5,-514 996.5,-514 658.5,-514"/>
<polygon fill="none" stroke="#57d97c" stroke-width="2" points="658,-471 658,-583 995,-583 995,-471 658,-471"/>
</g>
<!-- 1&#45;&gt;0 -->
<g id="edge1" class="edge">
<title>1&#45;&gt;0</title>
<path fill="none" stroke="grey" stroke-width="2" d="M826.5,-469.87C826.5,-461.92 826.5,-453.39 826.5,-444.43"/>
<polygon fill="grey" stroke="grey" stroke-width="2" points="830,-444.14 826.5,-434.14 823,-444.14 830,-444.14"/>
</g>
<!-- 2 -->
<g id="node3" class="node">
<title>2</title>
<text text-anchor="start" x="725" y="-713.6" font-family="sans" font-weight="bold" font-size="18.00">hicpro_contacts_raw</text>
<text text-anchor="start" x="667.5" y="-689.8" font-family="sans" font-size="10.00"> </text>
<text text-anchor="start" x="671.5" y="-689.8" font-family="sans" font-weight="bold" font-size="14.00">↪ input</text>
<text text-anchor="start" x="729.5" y="-689.8" font-family="sans" font-size="10.00"> </text>
<text text-anchor="start" x="667.5" y="-670" font-family="monospace" font-size="10.00">results/hicpro_allvpairs/{samp}/hic_results/data</text>
<text text-anchor="start" x="908.5" y="-649.8" font-family="sans" font-size="10.00"> </text>
<text text-anchor="start" x="912.5" y="-649.8" font-family="sans" font-weight="bold" font-size="14.00">output →</text>
<text text-anchor="start" x="982.5" y="-649.8" font-family="sans" font-size="10.00"> </text>
<text text-anchor="start" x="667.5" y="-630" font-family="monospace" font-size="10.00">results/hicpro_contacts_raw/{samp}/hic_results/matrix</text>
<polygon fill="#577cd9" stroke="#577cd9" points="661.5,-704 661.5,-704 993.5,-704 993.5,-704 661.5,-704"/>
<polygon fill="#577cd9" stroke="#577cd9" points="661.5,-664 661.5,-664 993.5,-664 993.5,-664 661.5,-664"/>
<polygon fill="none" stroke="#577cd9" stroke-width="2" points="661,-621 661,-733 992,-733 992,-621 661,-621"/>
</g>
<!-- 2&#45;&gt;1 -->
<g id="edge2" class="edge">
<title>2&#45;&gt;1</title>
<path fill="none" stroke="grey" stroke-width="2" d="M826.5,-619.63C826.5,-611.38 826.5,-602.82 826.5,-594.4"/>
<polygon fill="grey" stroke="grey" stroke-width="2" points="830,-594.22 826.5,-584.22 823,-594.22 830,-594.22"/>
</g>
<!-- 3 -->
<g id="node4" class="node">
<title>3</title>
<text text-anchor="start" x="729" y="-863.6" font-family="sans" font-weight="bold" font-size="18.00">hicpro_allvalidpairs</text>
<text text-anchor="start" x="682.5" y="-839.8" font-family="sans" font-size="10.00"> </text>
<text text-anchor="start" x="686.5" y="-839.8" font-family="sans" font-weight="bold" font-size="14.00">↪ input</text>
<text text-anchor="start" x="744.5" y="-839.8" font-family="sans" font-size="10.00"> </text>
<text text-anchor="start" x="682.5" y="-820" font-family="monospace" font-size="10.00">results/hicpro_pairs/{samp}/hic_results/data</text>
<text text-anchor="start" x="893.5" y="-799.8" font-family="sans" font-size="10.00"> </text>
<text text-anchor="start" x="897.5" y="-799.8" font-family="sans" font-weight="bold" font-size="14.00">output →</text>
<text text-anchor="start" x="967.5" y="-799.8" font-family="sans" font-size="10.00"> </text>
<text text-anchor="start" x="682.5" y="-780" font-family="monospace" font-size="10.00">results/hicpro_allvpairs/{samp}/hic_results/data</text>
<polygon fill="#57c6d9" stroke="#57c6d9" points="676.5,-854 676.5,-854 978.5,-854 978.5,-854 676.5,-854"/>
<polygon fill="#57c6d9" stroke="#57c6d9" points="676.5,-814 676.5,-814 978.5,-814 978.5,-814 676.5,-814"/>
<polygon fill="none" stroke="#57c6d9" stroke-width="2" points="676,-771 676,-883 977,-883 977,-771 676,-771"/>
</g>
<!-- 3&#45;&gt;2 -->
<g id="edge3" class="edge">
<title>3&#45;&gt;2</title>
<path fill="none" stroke="grey" stroke-width="2" d="M826.5,-769.63C826.5,-761.38 826.5,-752.82 826.5,-744.4"/>
<polygon fill="grey" stroke="grey" stroke-width="2" points="830,-744.22 826.5,-734.22 823,-744.22 830,-744.22"/>
</g>
<!-- 4 -->
<g id="node5" class="node">
<title>4</title>
<text text-anchor="start" x="765.5" y="-1013.6" font-family="sans" font-weight="bold" font-size="18.00">hicpro_pairs</text>
<text text-anchor="start" x="673.5" y="-989.8" font-family="sans" font-size="10.00"> </text>
<text text-anchor="start" x="677.5" y="-989.8" font-family="sans" font-weight="bold" font-size="14.00">↪ input</text>
<text text-anchor="start" x="735.5" y="-989.8" font-family="sans" font-size="10.00"> </text>
<text text-anchor="start" x="673.5" y="-970" font-family="monospace" font-size="10.00">results/hicpro_alignment/{samp}/bowtie_results/bwt2</text>
<text text-anchor="start" x="902.5" y="-949.8" font-family="sans" font-size="10.00"> </text>
<text text-anchor="start" x="906.5" y="-949.8" font-family="sans" font-weight="bold" font-size="14.00">output →</text>
<text text-anchor="start" x="976.5" y="-949.8" font-family="sans" font-size="10.00"> </text>
<text text-anchor="start" x="673.5" y="-930" font-family="monospace" font-size="10.00">results/hicpro_pairs/{samp}/hic_results/data</text>
<polygon fill="#a1d957" stroke="#a1d957" points="667.5,-1004 667.5,-1004 987.5,-1004 987.5,-1004 667.5,-1004"/>
<polygon fill="#a1d957" stroke="#a1d957" points="667.5,-964 667.5,-964 987.5,-964 987.5,-964 667.5,-964"/>
<polygon fill="none" stroke="#a1d957" stroke-width="2" points="667,-921 667,-1033 986,-1033 986,-921 667,-921"/>
</g>
<!-- 4&#45;&gt;3 -->
<g id="edge4" class="edge">
<title>4&#45;&gt;3</title>
<path fill="none" stroke="grey" stroke-width="2" d="M826.5,-919.63C826.5,-911.38 826.5,-902.82 826.5,-894.4"/>
<polygon fill="grey" stroke="grey" stroke-width="2" points="830,-894.22 826.5,-884.22 823,-894.22 830,-894.22"/>
</g>
<!-- 5 -->
<g id="node6" class="node">
<title>5</title>
<text text-anchor="start" x="766" y="-1361.6" font-family="sans" font-weight="bold" font-size="18.00">hicpro_align</text>
<text text-anchor="start" x="652.5" y="-1337.8" font-family="sans" font-size="10.00"> </text>
<text text-anchor="start" x="656.5" y="-1337.8" font-family="sans" font-weight="bold" font-size="14.00">↪ input</text>
<text text-anchor="start" x="714.5" y="-1337.8" font-family="sans" font-size="10.00"> </text>
<text text-anchor="start" x="652.5" y="-1318" font-family="monospace" font-size="10.00">&lt;input function&gt;</text>
<text text-anchor="start" x="652.5" y="-1300" font-family="monospace" font-size="10.00">resources/genome_fragments/GRCh38_arima.bed</text>
<text text-anchor="start" x="652.5" y="-1282" font-family="monospace" font-size="10.00">resources/hicpro/config&#45;hicpro.txt</text>
<text text-anchor="start" x="652.5" y="-1264" font-family="monospace" font-size="10.00">resources/indexes/bowtie/GRCh38.1.bt2</text>
<text text-anchor="start" x="652.5" y="-1246" font-family="monospace" font-size="10.00">resources/indexes/bowtie/GRCh38.2.bt2</text>
<text text-anchor="start" x="652.5" y="-1228" font-family="monospace" font-size="10.00">resources/indexes/bowtie/GRCh38.3.bt2</text>
<text text-anchor="start" x="652.5" y="-1210" font-family="monospace" font-size="10.00">resources/indexes/bowtie/GRCh38.4.bt2</text>
<text text-anchor="start" x="652.5" y="-1192" font-family="monospace" font-size="10.00">resources/indexes/bowtie/GRCh38.rev.1.bt2</text>
<text text-anchor="start" x="652.5" y="-1174" font-family="monospace" font-size="10.00">resources/indexes/bowtie/GRCh38.rev.2.bt2</text>
<text text-anchor="start" x="652.5" y="-1156" font-family="monospace" font-size="10.00">resources/software/hicpro/bin/HiC&#45;Pro</text>
<text text-anchor="start" x="923.5" y="-1135.8" font-family="sans" font-size="10.00"> </text>
<text text-anchor="start" x="927.5" y="-1135.8" font-family="sans" font-weight="bold" font-size="14.00">output →</text>
<text text-anchor="start" x="997.5" y="-1135.8" font-family="sans" font-size="10.00"> </text>
<text text-anchor="start" x="652.5" y="-1116" font-family="monospace" font-size="10.00">results/hicpro_alignment/{samp}/bowtie_results/bwt2</text>
<text text-anchor="start" x="652.5" y="-1098" font-family="monospace" font-size="10.00">results/hicpro_alignment/{samp}/bowtie_results/bwt2_global</text>
<text text-anchor="start" x="652.5" y="-1080" font-family="monospace" font-size="10.00">results/hicpro_alignment/{samp}/bowtie_results/bwt2_local</text>
<polygon fill="#d97c57" stroke="#d97c57" points="646.5,-1352 646.5,-1352 1008.5,-1352 1008.5,-1352 646.5,-1352"/>
<polygon fill="#d97c57" stroke="#d97c57" points="646.5,-1150 646.5,-1150 1008.5,-1150 1008.5,-1150 646.5,-1150"/>
<polygon fill="none" stroke="#d97c57" stroke-width="2" points="646,-1071 646,-1381 1007,-1381 1007,-1071 646,-1071"/>
</g>
<!-- 5&#45;&gt;4 -->
<g id="edge5" class="edge">
<title>5&#45;&gt;4</title>
<path fill="none" stroke="grey" stroke-width="2" d="M826.5,-1069.97C826.5,-1061.11 826.5,-1052.49 826.5,-1044.29"/>
<polygon fill="grey" stroke="grey" stroke-width="2" points="830,-1044.15 826.5,-1034.15 823,-1044.15 830,-1044.15"/>
</g>
<!-- 6 -->
<g id="node7" class="node">
<title>6</title>
<text text-anchor="start" x="133.5" y="-1565.6" font-family="sans" font-weight="bold" font-size="18.00">sra_to_fastq</text>
<text text-anchor="start" x="7.5" y="-1541.8" font-family="sans" font-size="10.00"> </text>
<text text-anchor="start" x="11.5" y="-1541.8" font-family="sans" font-weight="bold" font-size="14.00">↪ input</text>
<text text-anchor="start" x="69.5" y="-1541.8" font-family="sans" font-size="10.00"> </text>
<text text-anchor="start" x="7.5" y="-1522" font-family="monospace" font-size="10.00">results/sra/{samp}/{sra_run}.sra</text>
<text text-anchor="start" x="302.5" y="-1501.8" font-family="sans" font-size="10.00"> </text>
<text text-anchor="start" x="306.5" y="-1501.8" font-family="sans" font-weight="bold" font-size="14.00">output →</text>
<text text-anchor="start" x="376.5" y="-1501.8" font-family="sans" font-size="10.00"> </text>
<text text-anchor="start" x="7.5" y="-1482" font-family="monospace" font-size="10.00">results/fastq/{samp}/{samp}/{sra_run,SRR[0&#45;9]{6,9}}_1.fastq.gz</text>
<text text-anchor="start" x="7.5" y="-1464" font-family="monospace" font-size="10.00">results/fastq/{samp}/{samp}/{sra_run,SRR[0&#45;9]{6,9}}_2.fastq.gz</text>
<polygon fill="#d9c657" stroke="#d9c657" points="1.5,-1556 1.5,-1556 387.5,-1556 387.5,-1556 1.5,-1556"/>
<polygon fill="#d9c657" stroke="#d9c657" points="1.5,-1516 1.5,-1516 387.5,-1516 387.5,-1516 1.5,-1516"/>
<polygon fill="none" stroke="#d9c657" stroke-width="2" points="1,-1455 1,-1585 386,-1585 386,-1455 1,-1455"/>
</g>
<!-- 6&#45;&gt;5 -->
<g id="edge9" class="edge">
<title>6&#45;&gt;5</title>
<path fill="none" stroke="grey" stroke-width="2" d="M321.29,-1453.98C345.82,-1441.82 371.38,-1429.37 395.5,-1418 473.42,-1381.28 560.12,-1342.47 635.21,-1309.49"/>
<polygon fill="grey" stroke="grey" stroke-width="2" points="637.03,-1312.52 644.78,-1305.29 634.22,-1306.11 637.03,-1312.52"/>
</g>
<!-- 7 -->
<g id="node8" class="node">
<title>7</title>
<text text-anchor="start" x="131" y="-1740.6" font-family="sans" font-weight="bold" font-size="18.00">prefetch_sra</text>
<text text-anchor="start" x="55.5" y="-1719" font-family="sans" font-size="10.00"> &#160;</text>
<text text-anchor="start" x="254.5" y="-1698.8" font-family="sans" font-size="10.00"> </text>
<text text-anchor="start" x="258.5" y="-1698.8" font-family="sans" font-weight="bold" font-size="14.00">output →</text>
<text text-anchor="start" x="328.5" y="-1698.8" font-family="sans" font-size="10.00"> </text>
<text text-anchor="start" x="55.5" y="-1679" font-family="monospace" font-size="10.00">results/sra/{samp}/{sra_run,SRR[0&#45;9]{6,9}}.sra</text>
<polygon fill="#7cd957" stroke="#7cd957" points="49.5,-1731 49.5,-1731 339.5,-1731 339.5,-1731 49.5,-1731"/>
<polygon fill="#7cd957" stroke="#7cd957" points="49.5,-1713 49.5,-1713 339.5,-1713 339.5,-1713 49.5,-1713"/>
<polygon fill="none" stroke="#7cd957" stroke-width="2" points="49,-1670 49,-1760 338,-1760 338,-1670 49,-1670"/>
</g>
<!-- 7&#45;&gt;6 -->
<g id="edge11" class="edge">
<title>7&#45;&gt;6</title>
<path fill="none" stroke="grey" stroke-width="2" d="M193.5,-1668.75C193.5,-1647.11 193.5,-1620.62 193.5,-1596.08"/>
<polygon fill="grey" stroke="grey" stroke-width="2" points="197,-1596.07 193.5,-1586.07 190,-1596.07 197,-1596.07"/>
</g>
<!-- 8 -->
<g id="node9" class="node">
<title>8</title>
<text text-anchor="start" x="433.5" y="-1556.6" font-family="sans" font-weight="bold" font-size="18.00">restriction_fragments</text>
<text text-anchor="start" x="412.5" y="-1532.8" font-family="sans" font-size="10.00"> </text>
<text text-anchor="start" x="416.5" y="-1532.8" font-family="sans" font-weight="bold" font-size="14.00">↪ input</text>
<text text-anchor="start" x="474.5" y="-1532.8" font-family="sans" font-size="10.00"> </text>
<text text-anchor="start" x="412.5" y="-1513" font-family="monospace" font-size="10.00">resources/genome/GRCh38.fasta</text>
<text text-anchor="start" x="593.5" y="-1492.8" font-family="sans" font-size="10.00"> </text>
<text text-anchor="start" x="597.5" y="-1492.8" font-family="sans" font-weight="bold" font-size="14.00">output →</text>
<text text-anchor="start" x="667.5" y="-1492.8" font-family="sans" font-size="10.00"> </text>
<text text-anchor="start" x="412.5" y="-1473" font-family="monospace" font-size="10.00">resources/genome_fragments/GRCh38_arima.bed</text>
<polygon fill="#d9a157" stroke="#d9a157" points="406.5,-1547 406.5,-1547 678.5,-1547 678.5,-1547 406.5,-1547"/>
<polygon fill="#d9a157" stroke="#d9a157" points="406.5,-1507 406.5,-1507 678.5,-1507 678.5,-1507 406.5,-1507"/>
<polygon fill="none" stroke="#d9a157" stroke-width="2" points="406,-1464 406,-1576 677,-1576 677,-1464 406,-1464"/>
</g>
<!-- 8&#45;&gt;5 -->
<g id="edge7" class="edge">
<title>8&#45;&gt;5</title>
<path fill="none" stroke="grey" stroke-width="2" d="M596.45,-1462.7C617.3,-1441.34 642.23,-1415.8 667.86,-1389.53"/>
<polygon fill="grey" stroke="grey" stroke-width="2" points="670.63,-1391.71 675.11,-1382.11 665.62,-1386.82 670.63,-1391.71"/>
</g>
<!-- 9 -->
<g id="node10" class="node">
<title>9</title>
<text text-anchor="start" x="614.5" y="-1751.6" font-family="sans" font-weight="bold" font-size="18.00">untar_tcga_genome</text>
<text text-anchor="start" x="583.5" y="-1727.8" font-family="sans" font-size="10.00"> </text>
<text text-anchor="start" x="587.5" y="-1727.8" font-family="sans" font-weight="bold" font-size="14.00">↪ input</text>
<text text-anchor="start" x="645.5" y="-1727.8" font-family="sans" font-size="10.00"> </text>
<text text-anchor="start" x="583.5" y="-1708" font-family="monospace" font-size="10.00">resources/downloads/GRCh38.d1.vd1.fa.tar.gz</text>
<text text-anchor="start" x="764.5" y="-1687.8" font-family="sans" font-size="10.00"> </text>
<text text-anchor="start" x="768.5" y="-1687.8" font-family="sans" font-weight="bold" font-size="14.00">output →</text>
<text text-anchor="start" x="838.5" y="-1687.8" font-family="sans" font-size="10.00"> </text>
<text text-anchor="start" x="583.5" y="-1668" font-family="monospace" font-size="10.00">resources/genome/GRCh38.fasta</text>
<polygon fill="#57d9a1" stroke="#57d9a1" points="577.5,-1742 577.5,-1742 849.5,-1742 849.5,-1742 577.5,-1742"/>
<polygon fill="#57d9a1" stroke="#57d9a1" points="577.5,-1702 577.5,-1702 849.5,-1702 849.5,-1702 577.5,-1702"/>
<polygon fill="none" stroke="#57d9a1" stroke-width="2" points="577,-1659 577,-1771 848,-1771 848,-1659 577,-1659"/>
</g>
<!-- 9&#45;&gt;8 -->
<g id="edge12" class="edge">
<title>9&#45;&gt;8</title>
<path fill="none" stroke="grey" stroke-width="2" d="M662.81,-1657.92C642.52,-1635.02 618.95,-1608.42 598.01,-1584.78"/>
<polygon fill="grey" stroke="grey" stroke-width="2" points="600.57,-1582.39 591.31,-1577.22 595.33,-1587.03 600.57,-1582.39"/>
</g>
<!-- 11 -->
<g id="node12" class="node">
<title>11</title>
<text text-anchor="start" x="757" y="-1601.6" font-family="sans" font-weight="bold" font-size="18.00">bowtie2_build</text>
<text text-anchor="start" x="703.5" y="-1577.8" font-family="sans" font-size="10.00"> </text>
<text text-anchor="start" x="707.5" y="-1577.8" font-family="sans" font-weight="bold" font-size="14.00">↪ input</text>
<text text-anchor="start" x="765.5" y="-1577.8" font-family="sans" font-size="10.00"> </text>
<text text-anchor="start" x="703.5" y="-1558" font-family="monospace" font-size="10.00">resources/genome/GRCh38.fasta</text>
<text text-anchor="start" x="872.5" y="-1537.8" font-family="sans" font-size="10.00"> </text>
<text text-anchor="start" x="876.5" y="-1537.8" font-family="sans" font-weight="bold" font-size="14.00">output →</text>
<text text-anchor="start" x="946.5" y="-1537.8" font-family="sans" font-size="10.00"> </text>
<text text-anchor="start" x="703.5" y="-1518" font-family="monospace" font-size="10.00">resources/indexes/bowtie/GRCh38.1.bt2</text>
<text text-anchor="start" x="703.5" y="-1500" font-family="monospace" font-size="10.00">resources/indexes/bowtie/GRCh38.2.bt2</text>
<text text-anchor="start" x="703.5" y="-1482" font-family="monospace" font-size="10.00">resources/indexes/bowtie/GRCh38.3.bt2</text>
<text text-anchor="start" x="703.5" y="-1464" font-family="monospace" font-size="10.00">resources/indexes/bowtie/GRCh38.4.bt2</text>
<text text-anchor="start" x="703.5" y="-1446" font-family="monospace" font-size="10.00">resources/indexes/bowtie/GRCh38.rev.1.bt2</text>
<text text-anchor="start" x="703.5" y="-1428" font-family="monospace" font-size="10.00">resources/indexes/bowtie/GRCh38.rev.2.bt2</text>
<polygon fill="#d95757" stroke="#d95757" points="697.5,-1592 697.5,-1592 957.5,-1592 957.5,-1592 697.5,-1592"/>
<polygon fill="#d95757" stroke="#d95757" points="697.5,-1552 697.5,-1552 957.5,-1552 957.5,-1552 697.5,-1552"/>
<polygon fill="none" stroke="#d95757" stroke-width="2" points="697,-1419 697,-1621 956,-1621 956,-1419 697,-1419"/>
</g>
<!-- 9&#45;&gt;11 -->
<g id="edge14" class="edge">
<title>9&#45;&gt;11</title>
<path fill="none" stroke="grey" stroke-width="2" d="M745.63,-1657.92C750.66,-1649.4 755.99,-1640.37 761.43,-1631.17"/>
<polygon fill="grey" stroke="grey" stroke-width="2" points="764.59,-1632.7 766.66,-1622.3 758.56,-1629.14 764.59,-1632.7"/>
</g>
<!-- 10 -->
<g id="node11" class="node">
<title>10</title>
<text text-anchor="start" x="759.5" y="-1879.6" font-family="sans" font-weight="bold" font-size="18.00">remote_download</text>
<text text-anchor="start" x="759.5" y="-1858" font-family="sans" font-size="10.00"> &#160;</text>
<text text-anchor="start" x="859.5" y="-1837.8" font-family="sans" font-size="10.00"> </text>
<text text-anchor="start" x="863.5" y="-1837.8" font-family="sans" font-weight="bold" font-size="14.00">output →</text>
<text text-anchor="start" x="933.5" y="-1837.8" font-family="sans" font-size="10.00"> </text>
<text text-anchor="start" x="759.5" y="-1818" font-family="monospace" font-size="10.00">resources/downloads/{file}</text>
<polygon fill="#57a1d9" stroke="#57a1d9" points="753.5,-1870 753.5,-1870 944.5,-1870 944.5,-1870 753.5,-1870"/>
<polygon fill="#57a1d9" stroke="#57a1d9" points="753.5,-1852 753.5,-1852 944.5,-1852 944.5,-1852 753.5,-1852"/>
<polygon fill="none" stroke="#57a1d9" stroke-width="2" points="753.5,-1809 753.5,-1899 943.5,-1899 943.5,-1809 753.5,-1809"/>
</g>
<!-- 10&#45;&gt;9 -->
<g id="edge13" class="edge">
<title>10&#45;&gt;9</title>
<path fill="none" stroke="grey" stroke-width="2" d="M803.59,-1807.76C794.59,-1798.69 784.98,-1789.01 775.49,-1779.46"/>
<polygon fill="grey" stroke="grey" stroke-width="2" points="777.81,-1776.82 768.28,-1772.19 772.84,-1781.75 777.81,-1776.82"/>
</g>
<!-- 12 -->
<g id="node13" class="node">
<title>12</title>
<text text-anchor="start" x="919" y="-1751.6" font-family="sans" font-weight="bold" font-size="18.00">install_hicpro</text>
<text text-anchor="start" x="874.5" y="-1727.8" font-family="sans" font-size="10.00"> </text>
<text text-anchor="start" x="878.5" y="-1727.8" font-family="sans" font-weight="bold" font-size="14.00">↪ input</text>
<text text-anchor="start" x="936.5" y="-1727.8" font-family="sans" font-size="10.00"> </text>
<text text-anchor="start" x="874.5" y="-1708" font-family="monospace" font-size="10.00">resources/downloads/v3.1.0.tar.gz</text>
<text text-anchor="start" x="1019.5" y="-1687.8" font-family="sans" font-size="10.00"> </text>
<text text-anchor="start" x="1023.5" y="-1687.8" font-family="sans" font-weight="bold" font-size="14.00">output →</text>
<text text-anchor="start" x="1093.5" y="-1687.8" font-family="sans" font-size="10.00"> </text>
<text text-anchor="start" x="874.5" y="-1668" font-family="monospace" font-size="10.00">resources/software/hicpro/bin/HiC&#45;Pro</text>
<polygon fill="#57d957" stroke="#57d957" points="868.5,-1742 868.5,-1742 1104.5,-1742 1104.5,-1742 868.5,-1742"/>
<polygon fill="#57d957" stroke="#57d957" points="868.5,-1702 868.5,-1702 1104.5,-1702 1104.5,-1702 868.5,-1702"/>
<polygon fill="none" stroke="#57d957" stroke-width="2" points="868,-1659 868,-1771 1103,-1771 1103,-1659 868,-1659"/>
</g>
<!-- 10&#45;&gt;12 -->
<g id="edge15" class="edge">
<title>10&#45;&gt;12</title>
<path fill="none" stroke="grey" stroke-width="2" d="M893.74,-1807.76C902.81,-1798.69 912.49,-1789.01 922.04,-1779.46"/>
<polygon fill="grey" stroke="grey" stroke-width="2" points="924.72,-1781.73 929.31,-1772.19 919.77,-1776.78 924.72,-1781.73"/>
</g>
<!-- 11&#45;&gt;5 -->
<g id="edge6" class="edge">
<title>11&#45;&gt;5</title>
<path fill="none" stroke="grey" stroke-width="2" d="M826.5,-1417.69C826.5,-1409.4 826.5,-1400.9 826.5,-1392.31"/>
<polygon fill="grey" stroke="grey" stroke-width="2" points="830,-1392.19 826.5,-1382.19 823,-1392.19 830,-1392.19"/>
</g>
<!-- 12&#45;&gt;5 -->
<g id="edge10" class="edge">
<title>12&#45;&gt;5</title>
<path fill="none" stroke="grey" stroke-width="2" d="M990.76,-1657.83C994.43,-1596.85 994.37,-1497.52 965.5,-1418 962.23,-1408.99 958.39,-1400.03 954.13,-1391.19"/>
<polygon fill="grey" stroke="grey" stroke-width="2" points="957.14,-1389.39 949.53,-1382.02 950.89,-1392.53 957.14,-1389.39"/>
</g>
<!-- 13 -->
<g id="node14" class="node">
<title>13</title>
<text text-anchor="start" x="1024.5" y="-1556.6" font-family="sans" font-weight="bold" font-size="18.00">render_hicpro_config</text>
<text text-anchor="start" x="1021.5" y="-1532.8" font-family="sans" font-size="10.00"> </text>
<text text-anchor="start" x="1025.5" y="-1532.8" font-family="sans" font-weight="bold" font-size="14.00">↪ input</text>
<text text-anchor="start" x="1083.5" y="-1532.8" font-family="sans" font-size="10.00"> </text>
<text text-anchor="start" x="1021.5" y="-1513" font-family="monospace" font-size="10.00">resources/template_config&#45;hicpro.txt</text>
<text text-anchor="start" x="1160.5" y="-1492.8" font-family="sans" font-size="10.00"> </text>
<text text-anchor="start" x="1164.5" y="-1492.8" font-family="sans" font-weight="bold" font-size="14.00">output →</text>
<text text-anchor="start" x="1234.5" y="-1492.8" font-family="sans" font-size="10.00"> </text>
<text text-anchor="start" x="1021.5" y="-1473" font-family="monospace" font-size="10.00">resources/hicpro/config&#45;hicpro.txt</text>
<polygon fill="#c6d957" stroke="#c6d957" points="1015.5,-1547 1015.5,-1547 1245.5,-1547 1245.5,-1547 1015.5,-1547"/>
<polygon fill="#c6d957" stroke="#c6d957" points="1015.5,-1507 1015.5,-1507 1245.5,-1507 1245.5,-1507 1015.5,-1507"/>
<polygon fill="none" stroke="#c6d957" stroke-width="2" points="1015,-1464 1015,-1576 1244,-1576 1244,-1464 1015,-1464"/>
</g>
<!-- 13&#45;&gt;5 -->
<g id="edge8" class="edge">
<title>13&#45;&gt;5</title>
<path fill="none" stroke="grey" stroke-width="2" d="M1071.08,-1462.7C1048.82,-1441.25 1022.18,-1415.58 994.81,-1389.2"/>
<polygon fill="grey" stroke="grey" stroke-width="2" points="997.08,-1386.53 987.45,-1382.11 992.23,-1391.57 997.08,-1386.53"/>
</g>
</g>
</svg>
