<?xml version="1.0" encoding="UTF-8" standalone="no"?>
<!DOCTYPE svg PUBLIC "-//W3C//DTD SVG 1.1//EN"
 "http://www.w3.org/Graphics/SVG/1.1/DTD/svg11.dtd">
<!-- Generated by graphviz version 2.43.0 (0)
 -->
<!-- Title: snakemake_dag Pages: 1 -->
<svg width="1469pt" height="2052pt"
 viewBox="0.00 0.00 1469.00 2052.00" xmlns="http://www.w3.org/2000/svg" xmlns:xlink="http://www.w3.org/1999/xlink">
<g id="graph0" class="graph" transform="scale(1 1) rotate(0) translate(4 2048)">
<title>snakemake_dag</title>
<polygon fill="white" stroke="transparent" points="-4,4 -4,-2048 1465,-2048 1465,4 -4,4"/>
<!-- 0 -->
<g id="node1" class="node">
<title>0</title>
<text text-anchor="start" x="658.5" y="-413.6" font-family="sans" font-weight="bold" font-size="18.00">all</text>
<text text-anchor="start" x="451.5" y="-389.8" font-family="sans" font-size="10.00"> </text>
<text text-anchor="start" x="455.5" y="-389.8" font-family="sans" font-weight="bold" font-size="14.00">↪ input</text>
<text text-anchor="start" x="513.5" y="-389.8" font-family="sans" font-size="10.00"> </text>
<text text-anchor="start" x="451.5" y="-370" font-family="monospace" font-size="10.00">results/hicpro_contacts_iced/BT549_rep1_GSM5098072/hic_results/matrix</text>
<text text-anchor="start" x="451.5" y="-352" font-family="monospace" font-size="10.00">results/hicpro_contacts_iced/BT549_rep2_GSM5098073/hic_results/matrix</text>
<text text-anchor="start" x="451.5" y="-334" font-family="monospace" font-size="10.00">results/hicpro_contacts_iced/HCC1954_rep1_GSM5098068/hic_results/matrix</text>
<text text-anchor="start" x="451.5" y="-316" font-family="monospace" font-size="10.00">results/hicpro_contacts_iced/HCC1954_rep2_GSM5098069/hic_results/matrix</text>
<text text-anchor="start" x="451.5" y="-298" font-family="monospace" font-size="10.00">results/hicpro_contacts_iced/HCC70_rep1_GSM5098070/hic_results/matrix</text>
<text text-anchor="start" x="451.5" y="-280" font-family="monospace" font-size="10.00">results/hicpro_contacts_iced/HCC70_rep2_GSM5098071/hic_results/matrix</text>
<text text-anchor="start" x="451.5" y="-262" font-family="monospace" font-size="10.00">results/hicpro_contacts_iced/HMEC_rep1_GSM5098062/hic_results/matrix</text>
<text text-anchor="start" x="451.5" y="-244" font-family="monospace" font-size="10.00">results/hicpro_contacts_iced/HMEC_rep2_GSM5098063/hic_results/matrix</text>
<text text-anchor="start" x="451.5" y="-226" font-family="monospace" font-size="10.00">results/hicpro_contacts_iced/Normal_Tissue1_GSM5098074/hic_results/matrix</text>
<text text-anchor="start" x="451.5" y="-208" font-family="monospace" font-size="10.00">results/hicpro_contacts_iced/Normal_Tissue2_GSM5098075/hic_results/matrix</text>
<text text-anchor="start" x="451.5" y="-190" font-family="monospace" font-size="10.00">results/hicpro_contacts_iced/Normal_Tissue3_GSM5098076/hic_results/matrix</text>
<text text-anchor="start" x="451.5" y="-172" font-family="monospace" font-size="10.00">results/hicpro_contacts_iced/Normal_Tissue4_GSM5098077/hic_results/matrix</text>
<text text-anchor="start" x="451.5" y="-154" font-family="monospace" font-size="10.00">results/hicpro_contacts_iced/Normal_Tissue5_GSM5098078/hic_results/matrix</text>
<text text-anchor="start" x="451.5" y="-136" font-family="monospace" font-size="10.00">results/hicpro_contacts_iced/T47D_rep1_GSM5098064/hic_results/matrix</text>
<text text-anchor="start" x="451.5" y="-118" font-family="monospace" font-size="10.00">results/hicpro_contacts_iced/T47D_rep2_GSM5098065/hic_results/matrix</text>
<text text-anchor="start" x="451.5" y="-100" font-family="monospace" font-size="10.00">results/hicpro_contacts_iced/TNBC_Tissue1_GSM5098079/hic_results/matrix</text>
<text text-anchor="start" x="451.5" y="-82" font-family="monospace" font-size="10.00">results/hicpro_contacts_iced/TNBC_Tissue2_GSM5098080/hic_results/matrix</text>
<text text-anchor="start" x="451.5" y="-64" font-family="monospace" font-size="10.00">results/hicpro_contacts_iced/TNBC_Tissue3_GSM5098082/hic_results/matrix</text>
<text text-anchor="start" x="451.5" y="-46" font-family="monospace" font-size="10.00">results/hicpro_contacts_iced/ZR7530_rep1_GSM5098066/hic_results/matrix</text>
<text text-anchor="start" x="451.5" y="-28" font-family="monospace" font-size="10.00">results/hicpro_contacts_iced/ZR7530_rep2_GSM5098067/hic_results/matrix</text>
<text text-anchor="start" x="883.5" y="-10" font-family="sans" font-size="10.00"> &#160;</text>
<polygon fill="#57a1d9" stroke="#57a1d9" points="445.5,-404 445.5,-404 897.5,-404 897.5,-404 445.5,-404"/>
<polygon fill="#57a1d9" stroke="#57a1d9" points="445.5,-22 445.5,-22 897.5,-22 897.5,-22 445.5,-22"/>
<polygon fill="none" stroke="#57a1d9" stroke-width="2" points="445,-1 445,-433 896,-433 896,-1 445,-1"/>
</g>
<!-- 1 -->
<g id="node2" class="node">
<title>1</title>
<text text-anchor="start" x="567" y="-599.6" font-family="sans" font-weight="bold" font-size="18.00">hicpro_contacts_iced</text>
<text text-anchor="start" x="508.5" y="-575.8" font-family="sans" font-size="10.00"> </text>
<text text-anchor="start" x="512.5" y="-575.8" font-family="sans" font-weight="bold" font-size="14.00">↪ input</text>
<text text-anchor="start" x="570.5" y="-575.8" font-family="sans" font-size="10.00"> </text>
<text text-anchor="start" x="508.5" y="-556" font-family="monospace" font-size="10.00">resources/hicpro/config&#45;hicpro.txt</text>
<text text-anchor="start" x="508.5" y="-538" font-family="monospace" font-size="10.00">resources/software/hicpro/bin/HiC&#45;Pro</text>
<text text-anchor="start" x="508.5" y="-520" font-family="monospace" font-size="10.00">results/hicpro_contacts_raw/{samp}/hic_results/matrix</text>
<text text-anchor="start" x="755.5" y="-499.8" font-family="sans" font-size="10.00"> </text>
<text text-anchor="start" x="759.5" y="-499.8" font-family="sans" font-weight="bold" font-size="14.00">output →</text>
<text text-anchor="start" x="829.5" y="-499.8" font-family="sans" font-size="10.00"> </text>
<text text-anchor="start" x="508.5" y="-480" font-family="monospace" font-size="10.00">results/hicpro_contacts_iced/{samp}/hic_results/matrix</text>
<polygon fill="#57d9c6" stroke="#57d9c6" points="502.5,-590 502.5,-590 840.5,-590 840.5,-590 502.5,-590"/>
<polygon fill="#57d9c6" stroke="#57d9c6" points="502.5,-514 502.5,-514 840.5,-514 840.5,-514 502.5,-514"/>
<polygon fill="none" stroke="#57d9c6" stroke-width="2" points="502,-471 502,-619 839,-619 839,-471 502,-471"/>
</g>
<!-- 1&#45;&gt;0 -->
<g id="edge1" class="edge">
<title>1&#45;&gt;0</title>
<path fill="none" stroke="grey" stroke-width="2" d="M670.5,-469.62C670.5,-461.49 670.5,-452.95 670.5,-444.11"/>
<polygon fill="grey" stroke="grey" stroke-width="2" points="674,-444.01 670.5,-434.01 667,-444.01 674,-444.01"/>
</g>
<!-- 2 -->
<g id="node3" class="node">
<title>2</title>
<text text-anchor="start" x="569" y="-785.6" font-family="sans" font-weight="bold" font-size="18.00">hicpro_contacts_raw</text>
<text text-anchor="start" x="511.5" y="-761.8" font-family="sans" font-size="10.00"> </text>
<text text-anchor="start" x="515.5" y="-761.8" font-family="sans" font-weight="bold" font-size="14.00">↪ input</text>
<text text-anchor="start" x="573.5" y="-761.8" font-family="sans" font-size="10.00"> </text>
<text text-anchor="start" x="511.5" y="-742" font-family="monospace" font-size="10.00">resources/hicpro/config&#45;hicpro.txt</text>
<text text-anchor="start" x="511.5" y="-724" font-family="monospace" font-size="10.00">resources/software/hicpro/bin/HiC&#45;Pro</text>
<text text-anchor="start" x="511.5" y="-706" font-family="monospace" font-size="10.00">results/hicpro_allvpairs/{samp}/hic_results/data</text>
<text text-anchor="start" x="752.5" y="-685.8" font-family="sans" font-size="10.00"> </text>
<text text-anchor="start" x="756.5" y="-685.8" font-family="sans" font-weight="bold" font-size="14.00">output →</text>
<text text-anchor="start" x="826.5" y="-685.8" font-family="sans" font-size="10.00"> </text>
<text text-anchor="start" x="511.5" y="-666" font-family="monospace" font-size="10.00">results/hicpro_contacts_raw/{samp}/hic_results/matrix</text>
<polygon fill="#57d9a1" stroke="#57d9a1" points="505.5,-776 505.5,-776 837.5,-776 837.5,-776 505.5,-776"/>
<polygon fill="#57d9a1" stroke="#57d9a1" points="505.5,-700 505.5,-700 837.5,-700 837.5,-700 505.5,-700"/>
<polygon fill="none" stroke="#57d9a1" stroke-width="2" points="505,-657 505,-805 836,-805 836,-657 505,-657"/>
</g>
<!-- 2&#45;&gt;1 -->
<g id="edge3" class="edge">
<title>2&#45;&gt;1</title>
<path fill="none" stroke="grey" stroke-width="2" d="M670.5,-655.96C670.5,-647.49 670.5,-638.81 670.5,-630.22"/>
<polygon fill="grey" stroke="grey" stroke-width="2" points="674,-630.19 670.5,-620.19 667,-630.19 674,-630.19"/>
</g>
<!-- 3 -->
<g id="node4" class="node">
<title>3</title>
<text text-anchor="start" x="573" y="-971.6" font-family="sans" font-weight="bold" font-size="18.00">hicpro_allvalidpairs</text>
<text text-anchor="start" x="526.5" y="-947.8" font-family="sans" font-size="10.00"> </text>
<text text-anchor="start" x="530.5" y="-947.8" font-family="sans" font-weight="bold" font-size="14.00">↪ input</text>
<text text-anchor="start" x="588.5" y="-947.8" font-family="sans" font-size="10.00"> </text>
<text text-anchor="start" x="526.5" y="-928" font-family="monospace" font-size="10.00">resources/hicpro/config&#45;hicpro.txt</text>
<text text-anchor="start" x="526.5" y="-910" font-family="monospace" font-size="10.00">resources/software/hicpro/bin/HiC&#45;Pro</text>
<text text-anchor="start" x="526.5" y="-892" font-family="monospace" font-size="10.00">results/hicpro_pairs/{samp}/hic_results/data</text>
<text text-anchor="start" x="737.5" y="-871.8" font-family="sans" font-size="10.00"> </text>
<text text-anchor="start" x="741.5" y="-871.8" font-family="sans" font-weight="bold" font-size="14.00">output →</text>
<text text-anchor="start" x="811.5" y="-871.8" font-family="sans" font-size="10.00"> </text>
<text text-anchor="start" x="526.5" y="-852" font-family="monospace" font-size="10.00">results/hicpro_allvpairs/{samp}/hic_results/data</text>
<polygon fill="#577cd9" stroke="#577cd9" points="520.5,-962 520.5,-962 822.5,-962 822.5,-962 520.5,-962"/>
<polygon fill="#577cd9" stroke="#577cd9" points="520.5,-886 520.5,-886 822.5,-886 822.5,-886 520.5,-886"/>
<polygon fill="none" stroke="#577cd9" stroke-width="2" points="520,-843 520,-991 821,-991 821,-843 520,-843"/>
</g>
<!-- 3&#45;&gt;2 -->
<g id="edge7" class="edge">
<title>3&#45;&gt;2</title>
<path fill="none" stroke="grey" stroke-width="2" d="M670.5,-841.96C670.5,-833.49 670.5,-824.81 670.5,-816.22"/>
<polygon fill="grey" stroke="grey" stroke-width="2" points="674,-816.19 670.5,-806.19 667,-816.19 674,-816.19"/>
</g>
<!-- 4 -->
<g id="node5" class="node">
<title>4</title>
<text text-anchor="start" x="609.5" y="-1157.6" font-family="sans" font-weight="bold" font-size="18.00">hicpro_pairs</text>
<text text-anchor="start" x="517.5" y="-1133.8" font-family="sans" font-size="10.00"> </text>
<text text-anchor="start" x="521.5" y="-1133.8" font-family="sans" font-weight="bold" font-size="14.00">↪ input</text>
<text text-anchor="start" x="579.5" y="-1133.8" font-family="sans" font-size="10.00"> </text>
<text text-anchor="start" x="517.5" y="-1114" font-family="monospace" font-size="10.00">resources/hicpro/config&#45;hicpro.txt</text>
<text text-anchor="start" x="517.5" y="-1096" font-family="monospace" font-size="10.00">resources/software/hicpro/bin/HiC&#45;Pro</text>
<text text-anchor="start" x="517.5" y="-1078" font-family="monospace" font-size="10.00">results/hicpro_alignment/{samp}/bowtie_results/bwt2</text>
<text text-anchor="start" x="746.5" y="-1057.8" font-family="sans" font-size="10.00"> </text>
<text text-anchor="start" x="750.5" y="-1057.8" font-family="sans" font-weight="bold" font-size="14.00">output →</text>
<text text-anchor="start" x="820.5" y="-1057.8" font-family="sans" font-size="10.00"> </text>
<text text-anchor="start" x="517.5" y="-1038" font-family="monospace" font-size="10.00">results/hicpro_pairs/{samp}/hic_results/data</text>
<polygon fill="#7cd957" stroke="#7cd957" points="511.5,-1148 511.5,-1148 831.5,-1148 831.5,-1148 511.5,-1148"/>
<polygon fill="#7cd957" stroke="#7cd957" points="511.5,-1072 511.5,-1072 831.5,-1072 831.5,-1072 511.5,-1072"/>
<polygon fill="none" stroke="#7cd957" stroke-width="2" points="511,-1029 511,-1177 830,-1177 830,-1029 511,-1029"/>
</g>
<!-- 4&#45;&gt;3 -->
<g id="edge10" class="edge">
<title>4&#45;&gt;3</title>
<path fill="none" stroke="grey" stroke-width="2" d="M670.5,-1027.96C670.5,-1019.49 670.5,-1010.81 670.5,-1002.22"/>
<polygon fill="grey" stroke="grey" stroke-width="2" points="674,-1002.19 670.5,-992.19 667,-1002.19 674,-1002.19"/>
</g>
<!-- 5 -->
<g id="node6" class="node">
<title>5</title>
<text text-anchor="start" x="610" y="-1505.6" font-family="sans" font-weight="bold" font-size="18.00">hicpro_align</text>
<text text-anchor="start" x="496.5" y="-1481.8" font-family="sans" font-size="10.00"> </text>
<text text-anchor="start" x="500.5" y="-1481.8" font-family="sans" font-weight="bold" font-size="14.00">↪ input</text>
<text text-anchor="start" x="558.5" y="-1481.8" font-family="sans" font-size="10.00"> </text>
<text text-anchor="start" x="496.5" y="-1462" font-family="monospace" font-size="10.00">&lt;input function&gt;</text>
<text text-anchor="start" x="496.5" y="-1444" font-family="monospace" font-size="10.00">resources/genome_fragments/GRCh38_arima.bed</text>
<text text-anchor="start" x="496.5" y="-1426" font-family="monospace" font-size="10.00">resources/hicpro/config&#45;hicpro.txt</text>
<text text-anchor="start" x="496.5" y="-1408" font-family="monospace" font-size="10.00">resources/indexes/bowtie/GRCh38.1.bt2</text>
<text text-anchor="start" x="496.5" y="-1390" font-family="monospace" font-size="10.00">resources/indexes/bowtie/GRCh38.2.bt2</text>
<text text-anchor="start" x="496.5" y="-1372" font-family="monospace" font-size="10.00">resources/indexes/bowtie/GRCh38.3.bt2</text>
<text text-anchor="start" x="496.5" y="-1354" font-family="monospace" font-size="10.00">resources/indexes/bowtie/GRCh38.4.bt2</text>
<text text-anchor="start" x="496.5" y="-1336" font-family="monospace" font-size="10.00">resources/indexes/bowtie/GRCh38.rev.1.bt2</text>
<text text-anchor="start" x="496.5" y="-1318" font-family="monospace" font-size="10.00">resources/indexes/bowtie/GRCh38.rev.2.bt2</text>
<text text-anchor="start" x="496.5" y="-1300" font-family="monospace" font-size="10.00">resources/software/hicpro/bin/HiC&#45;Pro</text>
<text text-anchor="start" x="767.5" y="-1279.8" font-family="sans" font-size="10.00"> </text>
<text text-anchor="start" x="771.5" y="-1279.8" font-family="sans" font-weight="bold" font-size="14.00">output →</text>
<text text-anchor="start" x="841.5" y="-1279.8" font-family="sans" font-size="10.00"> </text>
<text text-anchor="start" x="496.5" y="-1260" font-family="monospace" font-size="10.00">results/hicpro_alignment/{samp}/bowtie_results/bwt2</text>
<text text-anchor="start" x="496.5" y="-1242" font-family="monospace" font-size="10.00">results/hicpro_alignment/{samp}/bowtie_results/bwt2_global</text>
<text text-anchor="start" x="496.5" y="-1224" font-family="monospace" font-size="10.00">results/hicpro_alignment/{samp}/bowtie_results/bwt2_local</text>
<polygon fill="#c6d957" stroke="#c6d957" points="490.5,-1496 490.5,-1496 852.5,-1496 852.5,-1496 490.5,-1496"/>
<polygon fill="#c6d957" stroke="#c6d957" points="490.5,-1294 490.5,-1294 852.5,-1294 852.5,-1294 490.5,-1294"/>
<polygon fill="none" stroke="#c6d957" stroke-width="2" points="490,-1215 490,-1525 851,-1525 851,-1215 490,-1215"/>
</g>
<!-- 5&#45;&gt;4 -->
<g id="edge13" class="edge">
<title>5&#45;&gt;4</title>
<path fill="none" stroke="grey" stroke-width="2" d="M670.5,-1213.7C670.5,-1205.04 670.5,-1196.52 670.5,-1188.28"/>
<polygon fill="grey" stroke="grey" stroke-width="2" points="674,-1188.01 670.5,-1178.01 667,-1188.01 674,-1188.01"/>
</g>
<!-- 6 -->
<g id="node7" class="node">
<title>6</title>
<text text-anchor="start" x="958.5" y="-1709.6" font-family="sans" font-weight="bold" font-size="18.00">sra_to_fastq</text>
<text text-anchor="start" x="832.5" y="-1685.8" font-family="sans" font-size="10.00"> </text>
<text text-anchor="start" x="836.5" y="-1685.8" font-family="sans" font-weight="bold" font-size="14.00">↪ input</text>
<text text-anchor="start" x="894.5" y="-1685.8" font-family="sans" font-size="10.00"> </text>
<text text-anchor="start" x="832.5" y="-1666" font-family="monospace" font-size="10.00">results/sra/{samp}/{sra_run}.sra</text>
<text text-anchor="start" x="1127.5" y="-1645.8" font-family="sans" font-size="10.00"> </text>
<text text-anchor="start" x="1131.5" y="-1645.8" font-family="sans" font-weight="bold" font-size="14.00">output →</text>
<text text-anchor="start" x="1201.5" y="-1645.8" font-family="sans" font-size="10.00"> </text>
<text text-anchor="start" x="832.5" y="-1626" font-family="monospace" font-size="10.00">results/fastq/{samp}/{samp}/{sra_run,SRR[0&#45;9]{6,9}}_1.fastq.gz</text>
<text text-anchor="start" x="832.5" y="-1608" font-family="monospace" font-size="10.00">results/fastq/{samp}/{samp}/{sra_run,SRR[0&#45;9]{6,9}}_2.fastq.gz</text>
<polygon fill="#57d97c" stroke="#57d97c" points="826.5,-1700 826.5,-1700 1212.5,-1700 1212.5,-1700 826.5,-1700"/>
<polygon fill="#57d97c" stroke="#57d97c" points="826.5,-1660 826.5,-1660 1212.5,-1660 1212.5,-1660 826.5,-1660"/>
<polygon fill="none" stroke="#57d97c" stroke-width="2" points="826,-1599 826,-1729 1211,-1729 1211,-1599 826,-1599"/>
</g>
<!-- 6&#45;&gt;5 -->
<g id="edge17" class="edge">
<title>6&#45;&gt;5</title>
<path fill="none" stroke="grey" stroke-width="2" d="M940.84,-1597.83C916.47,-1577.39 888.43,-1553.86 859.82,-1529.86"/>
<polygon fill="grey" stroke="grey" stroke-width="2" points="862.06,-1527.16 852.14,-1523.41 857.56,-1532.52 862.06,-1527.16"/>
</g>
<!-- 7 -->
<g id="node8" class="node">
<title>7</title>
<text text-anchor="start" x="956" y="-1884.6" font-family="sans" font-weight="bold" font-size="18.00">prefetch_sra</text>
<text text-anchor="start" x="880.5" y="-1863" font-family="sans" font-size="10.00"> &#160;</text>
<text text-anchor="start" x="1079.5" y="-1842.8" font-family="sans" font-size="10.00"> </text>
<text text-anchor="start" x="1083.5" y="-1842.8" font-family="sans" font-weight="bold" font-size="14.00">output →</text>
<text text-anchor="start" x="1153.5" y="-1842.8" font-family="sans" font-size="10.00"> </text>
<text text-anchor="start" x="880.5" y="-1823" font-family="monospace" font-size="10.00">results/sra/{samp}/{sra_run,SRR[0&#45;9]{6,9}}.sra</text>
<polygon fill="#a1d957" stroke="#a1d957" points="874.5,-1875 874.5,-1875 1164.5,-1875 1164.5,-1875 874.5,-1875"/>
<polygon fill="#a1d957" stroke="#a1d957" points="874.5,-1857 874.5,-1857 1164.5,-1857 1164.5,-1857 874.5,-1857"/>
<polygon fill="none" stroke="#a1d957" stroke-width="2" points="874,-1814 874,-1904 1163,-1904 1163,-1814 874,-1814"/>
</g>
<!-- 7&#45;&gt;6 -->
<g id="edge19" class="edge">
<title>7&#45;&gt;6</title>
<path fill="none" stroke="grey" stroke-width="2" d="M1018.5,-1812.75C1018.5,-1791.11 1018.5,-1764.62 1018.5,-1740.08"/>
<polygon fill="grey" stroke="grey" stroke-width="2" points="1022,-1740.07 1018.5,-1730.07 1015,-1740.07 1022,-1740.07"/>
</g>
<!-- 8 -->
<g id="node9" class="node">
<title>8</title>
<text text-anchor="start" x="562.5" y="-1700.6" font-family="sans" font-weight="bold" font-size="18.00">restriction_fragments</text>
<text text-anchor="start" x="541.5" y="-1676.8" font-family="sans" font-size="10.00"> </text>
<text text-anchor="start" x="545.5" y="-1676.8" font-family="sans" font-weight="bold" font-size="14.00">↪ input</text>
<text text-anchor="start" x="603.5" y="-1676.8" font-family="sans" font-size="10.00"> </text>
<text text-anchor="start" x="541.5" y="-1657" font-family="monospace" font-size="10.00">resources/genome/GRCh38.fasta</text>
<text text-anchor="start" x="722.5" y="-1636.8" font-family="sans" font-size="10.00"> </text>
<text text-anchor="start" x="726.5" y="-1636.8" font-family="sans" font-weight="bold" font-size="14.00">output →</text>
<text text-anchor="start" x="796.5" y="-1636.8" font-family="sans" font-size="10.00"> </text>
<text text-anchor="start" x="541.5" y="-1617" font-family="monospace" font-size="10.00">resources/genome_fragments/GRCh38_arima.bed</text>
<polygon fill="#57d957" stroke="#57d957" points="535.5,-1691 535.5,-1691 807.5,-1691 807.5,-1691 535.5,-1691"/>
<polygon fill="#57d957" stroke="#57d957" points="535.5,-1651 535.5,-1651 807.5,-1651 807.5,-1651 535.5,-1651"/>
<polygon fill="none" stroke="#57d957" stroke-width="2" points="535,-1608 535,-1720 806,-1720 806,-1608 535,-1608"/>
</g>
<!-- 8&#45;&gt;5 -->
<g id="edge16" class="edge">
<title>8&#45;&gt;5</title>
<path fill="none" stroke="grey" stroke-width="2" d="M670.5,-1606.7C670.5,-1586.07 670.5,-1561.54 670.5,-1536.23"/>
<polygon fill="grey" stroke="grey" stroke-width="2" points="674,-1536.11 670.5,-1526.11 667,-1536.11 674,-1536.11"/>
</g>
<!-- 9 -->
<g id="node10" class="node">
<title>9</title>
<text text-anchor="start" x="287.5" y="-1895.6" font-family="sans" font-weight="bold" font-size="18.00">untar_tcga_genome</text>
<text text-anchor="start" x="256.5" y="-1871.8" font-family="sans" font-size="10.00"> </text>
<text text-anchor="start" x="260.5" y="-1871.8" font-family="sans" font-weight="bold" font-size="14.00">↪ input</text>
<text text-anchor="start" x="318.5" y="-1871.8" font-family="sans" font-size="10.00"> </text>
<text text-anchor="start" x="256.5" y="-1852" font-family="monospace" font-size="10.00">resources/downloads/GRCh38.d1.vd1.fa.tar.gz</text>
<text text-anchor="start" x="437.5" y="-1831.8" font-family="sans" font-size="10.00"> </text>
<text text-anchor="start" x="441.5" y="-1831.8" font-family="sans" font-weight="bold" font-size="14.00">output →</text>
<text text-anchor="start" x="511.5" y="-1831.8" font-family="sans" font-size="10.00"> </text>
<text text-anchor="start" x="256.5" y="-1812" font-family="monospace" font-size="10.00">resources/genome/GRCh38.fasta</text>
<polygon fill="#d95757" stroke="#d95757" points="250.5,-1886 250.5,-1886 522.5,-1886 522.5,-1886 250.5,-1886"/>
<polygon fill="#d95757" stroke="#d95757" points="250.5,-1846 250.5,-1846 522.5,-1846 522.5,-1846 250.5,-1846"/>
<polygon fill="none" stroke="#d95757" stroke-width="2" points="250,-1803 250,-1915 521,-1915 521,-1803 250,-1803"/>
</g>
<!-- 9&#45;&gt;8 -->
<g id="edge20" class="edge">
<title>9&#45;&gt;8</title>
<path fill="none" stroke="grey" stroke-width="2" d="M470.96,-1801.84C488.7,-1790.06 507.24,-1777.68 524.5,-1766 543.07,-1753.44 562.87,-1739.86 581.71,-1726.86"/>
<polygon fill="grey" stroke="grey" stroke-width="2" points="583.76,-1729.69 590,-1721.13 579.78,-1723.93 583.76,-1729.69"/>
</g>
<!-- 11 -->
<g id="node12" class="node">
<title>11</title>
<text text-anchor="start" x="316" y="-1745.6" font-family="sans" font-weight="bold" font-size="18.00">bowtie2_build</text>
<text text-anchor="start" x="262.5" y="-1721.8" font-family="sans" font-size="10.00"> </text>
<text text-anchor="start" x="266.5" y="-1721.8" font-family="sans" font-weight="bold" font-size="14.00">↪ input</text>
<text text-anchor="start" x="324.5" y="-1721.8" font-family="sans" font-size="10.00"> </text>
<text text-anchor="start" x="262.5" y="-1702" font-family="monospace" font-size="10.00">resources/genome/GRCh38.fasta</text>
<text text-anchor="start" x="431.5" y="-1681.8" font-family="sans" font-size="10.00"> </text>
<text text-anchor="start" x="435.5" y="-1681.8" font-family="sans" font-weight="bold" font-size="14.00">output →</text>
<text text-anchor="start" x="505.5" y="-1681.8" font-family="sans" font-size="10.00"> </text>
<text text-anchor="start" x="262.5" y="-1662" font-family="monospace" font-size="10.00">resources/indexes/bowtie/GRCh38.1.bt2</text>
<text text-anchor="start" x="262.5" y="-1644" font-family="monospace" font-size="10.00">resources/indexes/bowtie/GRCh38.2.bt2</text>
<text text-anchor="start" x="262.5" y="-1626" font-family="monospace" font-size="10.00">resources/indexes/bowtie/GRCh38.3.bt2</text>
<text text-anchor="start" x="262.5" y="-1608" font-family="monospace" font-size="10.00">resources/indexes/bowtie/GRCh38.4.bt2</text>
<text text-anchor="start" x="262.5" y="-1590" font-family="monospace" font-size="10.00">resources/indexes/bowtie/GRCh38.rev.1.bt2</text>
<text text-anchor="start" x="262.5" y="-1572" font-family="monospace" font-size="10.00">resources/indexes/bowtie/GRCh38.rev.2.bt2</text>
<polygon fill="#d97c57" stroke="#d97c57" points="256.5,-1736 256.5,-1736 516.5,-1736 516.5,-1736 256.5,-1736"/>
<polygon fill="#d97c57" stroke="#d97c57" points="256.5,-1696 256.5,-1696 516.5,-1696 516.5,-1696 256.5,-1696"/>
<polygon fill="none" stroke="#d97c57" stroke-width="2" points="256,-1563 256,-1765 515,-1765 515,-1563 256,-1563"/>
</g>
<!-- 9&#45;&gt;11 -->
<g id="edge22" class="edge">
<title>9&#45;&gt;11</title>
<path fill="none" stroke="grey" stroke-width="2" d="M385.5,-1801.92C385.5,-1793.84 385.5,-1785.3 385.5,-1776.59"/>
<polygon fill="grey" stroke="grey" stroke-width="2" points="389,-1776.3 385.5,-1766.3 382,-1776.3 389,-1776.3"/>
</g>
<!-- 10 -->
<g id="node11" class="node">
<title>10</title>
<text text-anchor="start" x="162.5" y="-2023.6" font-family="sans" font-weight="bold" font-size="18.00">remote_download</text>
<text text-anchor="start" x="162.5" y="-2002" font-family="sans" font-size="10.00"> &#160;</text>
<text text-anchor="start" x="262.5" y="-1981.8" font-family="sans" font-size="10.00"> </text>
<text text-anchor="start" x="266.5" y="-1981.8" font-family="sans" font-weight="bold" font-size="14.00">output →</text>
<text text-anchor="start" x="336.5" y="-1981.8" font-family="sans" font-size="10.00"> </text>
<text text-anchor="start" x="162.5" y="-1962" font-family="monospace" font-size="10.00">resources/downloads/{file}</text>
<polygon fill="#d9a157" stroke="#d9a157" points="156.5,-2014 156.5,-2014 347.5,-2014 347.5,-2014 156.5,-2014"/>
<polygon fill="#d9a157" stroke="#d9a157" points="156.5,-1996 156.5,-1996 347.5,-1996 347.5,-1996 156.5,-1996"/>
<polygon fill="none" stroke="#d9a157" stroke-width="2" points="156.5,-1953 156.5,-2043 346.5,-2043 346.5,-1953 156.5,-1953"/>
</g>
<!-- 10&#45;&gt;9 -->
<g id="edge21" class="edge">
<title>10&#45;&gt;9</title>
<path fill="none" stroke="grey" stroke-width="2" d="M295.75,-1951.76C304.62,-1942.69 314.09,-1933.01 323.43,-1923.46"/>
<polygon fill="grey" stroke="grey" stroke-width="2" points="326.05,-1925.78 330.54,-1916.19 321.05,-1920.89 326.05,-1925.78"/>
</g>
<!-- 12 -->
<g id="node13" class="node">
<title>12</title>
<text text-anchor="start" x="52" y="-1700.6" font-family="sans" font-weight="bold" font-size="18.00">install_hicpro</text>
<text text-anchor="start" x="7.5" y="-1676.8" font-family="sans" font-size="10.00"> </text>
<text text-anchor="start" x="11.5" y="-1676.8" font-family="sans" font-weight="bold" font-size="14.00">↪ input</text>
<text text-anchor="start" x="69.5" y="-1676.8" font-family="sans" font-size="10.00"> </text>
<text text-anchor="start" x="7.5" y="-1657" font-family="monospace" font-size="10.00">resources/downloads/v3.1.0.tar.gz</text>
<text text-anchor="start" x="152.5" y="-1636.8" font-family="sans" font-size="10.00"> </text>
<text text-anchor="start" x="156.5" y="-1636.8" font-family="sans" font-weight="bold" font-size="14.00">output →</text>
<text text-anchor="start" x="226.5" y="-1636.8" font-family="sans" font-size="10.00"> </text>
<text text-anchor="start" x="7.5" y="-1617" font-family="monospace" font-size="10.00">resources/software/hicpro/bin/HiC&#45;Pro</text>
<polygon fill="#d9c657" stroke="#d9c657" points="1.5,-1691 1.5,-1691 237.5,-1691 237.5,-1691 1.5,-1691"/>
<polygon fill="#d9c657" stroke="#d9c657" points="1.5,-1651 1.5,-1651 237.5,-1651 237.5,-1651 1.5,-1651"/>
<polygon fill="none" stroke="#d9c657" stroke-width="2" points="1,-1608 1,-1720 236,-1720 236,-1608 1,-1608"/>
</g>
<!-- 10&#45;&gt;12 -->
<g id="edge23" class="edge">
<title>10&#45;&gt;12</title>
<path fill="none" stroke="grey" stroke-width="2" d="M233.42,-1951.88C210.54,-1894.76 170.96,-1795.95 144.75,-1730.52"/>
<polygon fill="grey" stroke="grey" stroke-width="2" points="147.95,-1729.1 140.98,-1721.12 141.45,-1731.7 147.95,-1729.1"/>
</g>
<!-- 11&#45;&gt;5 -->
<g id="edge14" class="edge">
<title>11&#45;&gt;5</title>
<path fill="none" stroke="grey" stroke-width="2" d="M484.38,-1561.69C493.35,-1552.5 502.57,-1543.05 511.89,-1533.51"/>
<polygon fill="grey" stroke="grey" stroke-width="2" points="514.55,-1535.8 519.03,-1526.19 509.54,-1530.91 514.55,-1535.8"/>
</g>
<!-- 12&#45;&gt;1 -->
<g id="edge4" class="edge">
<title>12&#45;&gt;1</title>
<path fill="none" stroke="grey" stroke-width="2" d="M121.01,-1606.68C125.28,-1505.88 133.5,-1287.97 133.5,-1104 133.5,-1104 133.5,-1104 133.5,-916 133.5,-738.43 335.06,-639.56 491.21,-589.61"/>
<polygon fill="grey" stroke="grey" stroke-width="2" points="492.47,-592.88 500.96,-586.53 490.37,-586.2 492.47,-592.88"/>
</g>
<!-- 12&#45;&gt;2 -->
<g id="edge6" class="edge">
<title>12&#45;&gt;2</title>
<path fill="none" stroke="grey" stroke-width="2" d="M130.97,-1606.79C136.31,-1582.06 142.46,-1552.64 147.5,-1526 190.28,-1299.73 149.16,-1209.8 290.5,-1028 358.22,-940.89 457.08,-864.95 536.99,-811.8"/>
<polygon fill="grey" stroke="grey" stroke-width="2" points="539.23,-814.51 545.64,-806.08 535.37,-808.67 539.23,-814.51"/>
</g>
<!-- 12&#45;&gt;3 -->
<g id="edge9" class="edge">
<title>12&#45;&gt;3</title>
<path fill="none" stroke="grey" stroke-width="2" d="M157.31,-1606.77C172.37,-1582.78 188.58,-1553.92 199.5,-1526 251.15,-1393.91 191.72,-1334.51 266.5,-1214 324.62,-1120.34 424.25,-1046.85 510.02,-996.53"/>
<polygon fill="grey" stroke="grey" stroke-width="2" points="511.92,-999.48 518.81,-991.43 508.4,-993.42 511.92,-999.48"/>
</g>
<!-- 12&#45;&gt;4 -->
<g id="edge12" class="edge">
<title>12&#45;&gt;4</title>
<path fill="none" stroke="grey" stroke-width="2" d="M185.28,-1606.93C211.85,-1583.2 241.89,-1554.48 266.5,-1526 376.44,-1398.77 357.15,-1328.27 480.5,-1214 491.96,-1203.38 504.62,-1193.34 517.81,-1183.97"/>
<polygon fill="grey" stroke="grey" stroke-width="2" points="519.87,-1186.81 526.08,-1178.22 515.87,-1181.06 519.87,-1186.81"/>
</g>
<!-- 12&#45;&gt;5 -->
<g id="edge15" class="edge">
<title>12&#45;&gt;5</title>
<path fill="none" stroke="grey" stroke-width="2" d="M177.26,-1606.89C197.53,-1590.2 221.27,-1573.36 245.5,-1562 316.61,-1528.65 345.52,-1555.01 418.5,-1526 438.98,-1517.86 459.67,-1508.1 479.93,-1497.48"/>
<polygon fill="grey" stroke="grey" stroke-width="2" points="481.7,-1500.5 488.89,-1492.72 478.42,-1494.32 481.7,-1500.5"/>
</g>
<!-- 13 -->
<g id="node14" class="node">
<title>13</title>
<text text-anchor="start" x="1240.5" y="-1700.6" font-family="sans" font-weight="bold" font-size="18.00">render_hicpro_config</text>
<text text-anchor="start" x="1237.5" y="-1676.8" font-family="sans" font-size="10.00"> </text>
<text text-anchor="start" x="1241.5" y="-1676.8" font-family="sans" font-weight="bold" font-size="14.00">↪ input</text>
<text text-anchor="start" x="1299.5" y="-1676.8" font-family="sans" font-size="10.00"> </text>
<text text-anchor="start" x="1237.5" y="-1657" font-family="monospace" font-size="10.00">resources/template_config&#45;hicpro.txt</text>
<text text-anchor="start" x="1376.5" y="-1636.8" font-family="sans" font-size="10.00"> </text>
<text text-anchor="start" x="1380.5" y="-1636.8" font-family="sans" font-weight="bold" font-size="14.00">output →</text>
<text text-anchor="start" x="1450.5" y="-1636.8" font-family="sans" font-size="10.00"> </text>
<text text-anchor="start" x="1237.5" y="-1617" font-family="monospace" font-size="10.00">resources/hicpro/config&#45;hicpro.txt</text>
<polygon fill="#57c6d9" stroke="#57c6d9" points="1231.5,-1691 1231.5,-1691 1461.5,-1691 1461.5,-1691 1231.5,-1691"/>
<polygon fill="#57c6d9" stroke="#57c6d9" points="1231.5,-1651 1231.5,-1651 1461.5,-1651 1461.5,-1651 1231.5,-1651"/>
<polygon fill="none" stroke="#57c6d9" stroke-width="2" points="1231,-1608 1231,-1720 1460,-1720 1460,-1608 1231,-1608"/>
</g>
<!-- 13&#45;&gt;1 -->
<g id="edge2" class="edge">
<title>13&#45;&gt;1</title>
<path fill="none" stroke="grey" stroke-width="2" d="M1341.82,-1606.69C1335.55,-1505.92 1323.5,-1288.05 1323.5,-1104 1323.5,-1104 1323.5,-1104 1323.5,-916 1323.5,-697.63 1043.66,-606.6 850.37,-569.78"/>
<polygon fill="grey" stroke="grey" stroke-width="2" points="850.84,-566.3 840.36,-567.9 849.55,-573.18 850.84,-566.3"/>
</g>
<!-- 13&#45;&gt;2 -->
<g id="edge5" class="edge">
<title>13&#45;&gt;2</title>
<path fill="none" stroke="grey" stroke-width="2" d="M1327.05,-1606.83C1296.94,-1519.15 1232.22,-1346.1 1149.5,-1214 1034.06,-1029.65 993.37,-987.28 831.5,-842 820.24,-831.89 808,-821.96 795.47,-812.45"/>
<polygon fill="grey" stroke="grey" stroke-width="2" points="797.3,-809.45 787.2,-806.26 793.11,-815.05 797.3,-809.45"/>
</g>
<!-- 13&#45;&gt;3 -->
<g id="edge8" class="edge">
<title>13&#45;&gt;3</title>
<path fill="none" stroke="grey" stroke-width="2" d="M1305.97,-1606.64C1224.19,-1490.12 1042.75,-1232.03 1027.5,-1214 951.79,-1124.51 931.76,-1101.57 840.5,-1028 827.92,-1017.86 814.38,-1007.81 800.63,-998.16"/>
<polygon fill="grey" stroke="grey" stroke-width="2" points="802.25,-995.03 792.04,-992.2 798.26,-1000.78 802.25,-995.03"/>
</g>
<!-- 13&#45;&gt;4 -->
<g id="edge11" class="edge">
<title>13&#45;&gt;4</title>
<path fill="none" stroke="grey" stroke-width="2" d="M1278.85,-1606.77C1260.54,-1591.86 1240.49,-1576.01 1221.5,-1562 1198.29,-1544.87 1189.73,-1544.38 1167.5,-1526 1017.55,-1402.06 1014.29,-1333.14 860.5,-1214 847.02,-1203.56 832.46,-1193.41 817.59,-1183.77"/>
<polygon fill="grey" stroke="grey" stroke-width="2" points="819.12,-1180.59 808.81,-1178.15 815.35,-1186.49 819.12,-1180.59"/>
</g>
<!-- 13&#45;&gt;5 -->
<g id="edge18" class="edge">
<title>13&#45;&gt;5</title>
<path fill="none" stroke="grey" stroke-width="2" d="M1288.37,-1606.75C1268.59,-1590.05 1245.36,-1573.25 1221.5,-1562 1147.7,-1527.22 1119.52,-1549.84 1041.5,-1526 981.9,-1507.79 918.75,-1483.43 861.77,-1459.42"/>
<polygon fill="grey" stroke="grey" stroke-width="2" points="862.88,-1456.09 852.31,-1455.41 860.15,-1462.54 862.88,-1456.09"/>
</g>
</g>
</svg>
