<?xml version="1.0" encoding="UTF-8" standalone="no"?>
<!DOCTYPE svg PUBLIC "-//W3C//DTD SVG 1.1//EN"
 "http://www.w3.org/Graphics/SVG/1.1/DTD/svg11.dtd">
<!-- Generated by graphviz version 2.43.0 (0)
 -->
<!-- Title: snakemake_dag Pages: 1 -->
<svg width="566pt" height="620pt"
 viewBox="0.00 0.00 566.00 620.00" xmlns="http://www.w3.org/2000/svg" xmlns:xlink="http://www.w3.org/1999/xlink">
<g id="graph0" class="graph" transform="scale(1 1) rotate(0) translate(4 616)">
<title>snakemake_dag</title>
<polygon fill="white" stroke="transparent" points="-4,4 -4,-616 562,-616 562,4 -4,4"/>
<!-- 0 -->
<g id="node1" class="node">
<title>0</title>
<path fill="none" stroke="#59d856" stroke-width="2" d="M280,-36C280,-36 250,-36 250,-36 244,-36 238,-30 238,-24 238,-24 238,-12 238,-12 238,-6 244,0 250,0 250,0 280,0 280,0 286,0 292,-6 292,-12 292,-12 292,-24 292,-24 292,-30 286,-36 280,-36"/>
<text text-anchor="middle" x="265" y="-15.5" font-family="sans" font-size="10.00">all</text>
</g>
<!-- 1 -->
<g id="node2" class="node">
<title>1</title>
<path fill="none" stroke="#78d856" stroke-width="2" d="M312.5,-108C312.5,-108 217.5,-108 217.5,-108 211.5,-108 205.5,-102 205.5,-96 205.5,-96 205.5,-84 205.5,-84 205.5,-78 211.5,-72 217.5,-72 217.5,-72 312.5,-72 312.5,-72 318.5,-72 324.5,-78 324.5,-84 324.5,-84 324.5,-96 324.5,-96 324.5,-102 318.5,-108 312.5,-108"/>
<text text-anchor="middle" x="265" y="-87.5" font-family="sans" font-size="10.00">hicpro_contacts_iced</text>
</g>
<!-- 1&#45;&gt;0 -->
<g id="edge1" class="edge">
<title>1&#45;&gt;0</title>
<path fill="none" stroke="grey" stroke-width="2" d="M265,-71.7C265,-63.98 265,-54.71 265,-46.11"/>
<polygon fill="grey" stroke="grey" stroke-width="2" points="268.5,-46.1 265,-36.1 261.5,-46.1 268.5,-46.1"/>
</g>
<!-- 2 -->
<g id="node3" class="node">
<title>2</title>
<path fill="none" stroke="#9fd856" stroke-width="2" d="M311,-180C311,-180 219,-180 219,-180 213,-180 207,-174 207,-168 207,-168 207,-156 207,-156 207,-150 213,-144 219,-144 219,-144 311,-144 311,-144 317,-144 323,-150 323,-156 323,-156 323,-168 323,-168 323,-174 317,-180 311,-180"/>
<text text-anchor="middle" x="265" y="-159.5" font-family="sans" font-size="10.00">hicpro_contacts_raw</text>
</g>
<!-- 2&#45;&gt;1 -->
<g id="edge3" class="edge">
<title>2&#45;&gt;1</title>
<path fill="none" stroke="grey" stroke-width="2" d="M265,-143.7C265,-135.98 265,-126.71 265,-118.11"/>
<polygon fill="grey" stroke="grey" stroke-width="2" points="268.5,-118.1 265,-108.1 261.5,-118.1 268.5,-118.1"/>
</g>
<!-- 3 -->
<g id="node4" class="node">
<title>3</title>
<path fill="none" stroke="#d85656" stroke-width="2" d="M309,-252C309,-252 221,-252 221,-252 215,-252 209,-246 209,-240 209,-240 209,-228 209,-228 209,-222 215,-216 221,-216 221,-216 309,-216 309,-216 315,-216 321,-222 321,-228 321,-228 321,-240 321,-240 321,-246 315,-252 309,-252"/>
<text text-anchor="middle" x="265" y="-231.5" font-family="sans" font-size="10.00">hicpro_allvalidpairs</text>
</g>
<!-- 3&#45;&gt;2 -->
<g id="edge5" class="edge">
<title>3&#45;&gt;2</title>
<path fill="none" stroke="grey" stroke-width="2" d="M265,-215.7C265,-207.98 265,-198.71 265,-190.11"/>
<polygon fill="grey" stroke="grey" stroke-width="2" points="268.5,-190.1 265,-180.1 261.5,-190.1 268.5,-190.1"/>
</g>
<!-- 4 -->
<g id="node5" class="node">
<title>4</title>
<path fill="none" stroke="#56d8c9" stroke-width="2" d="M291,-324C291,-324 239,-324 239,-324 233,-324 227,-318 227,-312 227,-312 227,-300 227,-300 227,-294 233,-288 239,-288 239,-288 291,-288 291,-288 297,-288 303,-294 303,-300 303,-300 303,-312 303,-312 303,-318 297,-324 291,-324"/>
<text text-anchor="middle" x="265" y="-303.5" font-family="sans" font-size="10.00">hicpro_pairs</text>
</g>
<!-- 4&#45;&gt;3 -->
<g id="edge8" class="edge">
<title>4&#45;&gt;3</title>
<path fill="none" stroke="grey" stroke-width="2" d="M265,-287.7C265,-279.98 265,-270.71 265,-262.11"/>
<polygon fill="grey" stroke="grey" stroke-width="2" points="268.5,-262.1 265,-252.1 261.5,-262.1 268.5,-262.1"/>
</g>
<!-- 5 -->
<g id="node6" class="node">
<title>5</title>
<path fill="none" stroke="#56d8a2" stroke-width="2" d="M291,-396C291,-396 239,-396 239,-396 233,-396 227,-390 227,-384 227,-384 227,-372 227,-372 227,-366 233,-360 239,-360 239,-360 291,-360 291,-360 297,-360 303,-366 303,-372 303,-372 303,-384 303,-384 303,-390 297,-396 291,-396"/>
<text text-anchor="middle" x="265" y="-375.5" font-family="sans" font-size="10.00">hicpro_align</text>
</g>
<!-- 5&#45;&gt;4 -->
<g id="edge12" class="edge">
<title>5&#45;&gt;4</title>
<path fill="none" stroke="grey" stroke-width="2" d="M265,-359.7C265,-351.98 265,-342.71 265,-334.11"/>
<polygon fill="grey" stroke="grey" stroke-width="2" points="268.5,-334.1 265,-324.1 261.5,-334.1 268.5,-334.1"/>
</g>
<!-- 6 -->
<g id="node7" class="node">
<title>6</title>
<path fill="none" stroke="#56d87b" stroke-width="2" d="M409.5,-468C409.5,-468 356.5,-468 356.5,-468 350.5,-468 344.5,-462 344.5,-456 344.5,-456 344.5,-444 344.5,-444 344.5,-438 350.5,-432 356.5,-432 356.5,-432 409.5,-432 409.5,-432 415.5,-432 421.5,-438 421.5,-444 421.5,-444 421.5,-456 421.5,-456 421.5,-462 415.5,-468 409.5,-468"/>
<text text-anchor="middle" x="383" y="-447.5" font-family="sans" font-size="10.00">sra_to_fastq</text>
</g>
<!-- 6&#45;&gt;5 -->
<g id="edge16" class="edge">
<title>6&#45;&gt;5</title>
<path fill="none" stroke="grey" stroke-width="2" d="M354.13,-431.88C338.71,-422.72 319.52,-411.34 302.9,-401.48"/>
<polygon fill="grey" stroke="grey" stroke-width="2" points="304.36,-398.28 293.98,-396.19 300.79,-404.3 304.36,-398.28"/>
</g>
<!-- 7 -->
<g id="node8" class="node">
<title>7</title>
<path fill="none" stroke="#56a2d8" stroke-width="2" d="M409.5,-540C409.5,-540 356.5,-540 356.5,-540 350.5,-540 344.5,-534 344.5,-528 344.5,-528 344.5,-516 344.5,-516 344.5,-510 350.5,-504 356.5,-504 356.5,-504 409.5,-504 409.5,-504 415.5,-504 421.5,-510 421.5,-516 421.5,-516 421.5,-528 421.5,-528 421.5,-534 415.5,-540 409.5,-540"/>
<text text-anchor="middle" x="383" y="-519.5" font-family="sans" font-size="10.00">prefetch_sra</text>
</g>
<!-- 7&#45;&gt;6 -->
<g id="edge19" class="edge">
<title>7&#45;&gt;6</title>
<path fill="none" stroke="grey" stroke-width="2" d="M383,-503.7C383,-495.98 383,-486.71 383,-478.11"/>
<polygon fill="grey" stroke="grey" stroke-width="2" points="386.5,-478.1 383,-468.1 379.5,-478.1 386.5,-478.1"/>
</g>
<!-- 8 -->
<g id="node9" class="node">
<title>8</title>
<path fill="none" stroke="#c6d856" stroke-width="2" d="M314,-468C314,-468 216,-468 216,-468 210,-468 204,-462 204,-456 204,-456 204,-444 204,-444 204,-438 210,-432 216,-432 216,-432 314,-432 314,-432 320,-432 326,-438 326,-444 326,-444 326,-456 326,-456 326,-462 320,-468 314,-468"/>
<text text-anchor="middle" x="265" y="-447.5" font-family="sans" font-size="10.00">restriction_fragments</text>
</g>
<!-- 8&#45;&gt;5 -->
<g id="edge15" class="edge">
<title>8&#45;&gt;5</title>
<path fill="none" stroke="grey" stroke-width="2" d="M265,-431.7C265,-423.98 265,-414.71 265,-406.11"/>
<polygon fill="grey" stroke="grey" stroke-width="2" points="268.5,-406.1 265,-396.1 261.5,-406.1 268.5,-406.1"/>
</g>
<!-- 9 -->
<g id="node10" class="node">
<title>9</title>
<path fill="none" stroke="#d87d56" stroke-width="2" d="M187.5,-540C187.5,-540 98.5,-540 98.5,-540 92.5,-540 86.5,-534 86.5,-528 86.5,-528 86.5,-516 86.5,-516 86.5,-510 92.5,-504 98.5,-504 98.5,-504 187.5,-504 187.5,-504 193.5,-504 199.5,-510 199.5,-516 199.5,-516 199.5,-528 199.5,-528 199.5,-534 193.5,-540 187.5,-540"/>
<text text-anchor="middle" x="143" y="-519.5" font-family="sans" font-size="10.00">untar_tcga_genome</text>
</g>
<!-- 9&#45;&gt;8 -->
<g id="edge20" class="edge">
<title>9&#45;&gt;8</title>
<path fill="none" stroke="grey" stroke-width="2" d="M172.84,-503.88C188.94,-494.64 209,-483.13 226.29,-473.21"/>
<polygon fill="grey" stroke="grey" stroke-width="2" points="228.11,-476.2 235.04,-468.19 224.63,-470.13 228.11,-476.2"/>
</g>
<!-- 11 -->
<g id="node12" class="node">
<title>11</title>
<path fill="none" stroke="#56c9d8" stroke-width="2" d="M173.5,-468C173.5,-468 112.5,-468 112.5,-468 106.5,-468 100.5,-462 100.5,-456 100.5,-456 100.5,-444 100.5,-444 100.5,-438 106.5,-432 112.5,-432 112.5,-432 173.5,-432 173.5,-432 179.5,-432 185.5,-438 185.5,-444 185.5,-444 185.5,-456 185.5,-456 185.5,-462 179.5,-468 173.5,-468"/>
<text text-anchor="middle" x="143" y="-447.5" font-family="sans" font-size="10.00">bowtie2_build</text>
</g>
<!-- 9&#45;&gt;11 -->
<g id="edge22" class="edge">
<title>9&#45;&gt;11</title>
<path fill="none" stroke="grey" stroke-width="2" d="M143,-503.7C143,-495.98 143,-486.71 143,-478.11"/>
<polygon fill="grey" stroke="grey" stroke-width="2" points="146.5,-478.1 143,-468.1 139.5,-478.1 146.5,-478.1"/>
</g>
<!-- 10 -->
<g id="node11" class="node">
<title>10</title>
<path fill="none" stroke="#d8a456" stroke-width="2" d="M132,-612C132,-612 52,-612 52,-612 46,-612 40,-606 40,-600 40,-600 40,-588 40,-588 40,-582 46,-576 52,-576 52,-576 132,-576 132,-576 138,-576 144,-582 144,-588 144,-588 144,-600 144,-600 144,-606 138,-612 132,-612"/>
<text text-anchor="middle" x="92" y="-591.5" font-family="sans" font-size="10.00">remote_download</text>
</g>
<!-- 10&#45;&gt;9 -->
<g id="edge21" class="edge">
<title>10&#45;&gt;9</title>
<path fill="none" stroke="grey" stroke-width="2" d="M104.61,-575.7C110.6,-567.47 117.88,-557.48 124.48,-548.42"/>
<polygon fill="grey" stroke="grey" stroke-width="2" points="127.48,-550.25 130.54,-540.1 121.82,-546.13 127.48,-550.25"/>
</g>
<!-- 12 -->
<g id="node13" class="node">
<title>12</title>
<path fill="none" stroke="#d8c356" stroke-width="2" d="M70,-468C70,-468 12,-468 12,-468 6,-468 0,-462 0,-456 0,-456 0,-444 0,-444 0,-438 6,-432 12,-432 12,-432 70,-432 70,-432 76,-432 82,-438 82,-444 82,-444 82,-456 82,-456 82,-462 76,-468 70,-468"/>
<text text-anchor="middle" x="41" y="-447.5" font-family="sans" font-size="10.00">install_hicpro</text>
</g>
<!-- 10&#45;&gt;12 -->
<g id="edge23" class="edge">
<title>10&#45;&gt;12</title>
<path fill="none" stroke="grey" stroke-width="2" d="M85.85,-575.87C77.08,-551.46 60.91,-506.43 50.57,-477.64"/>
<polygon fill="grey" stroke="grey" stroke-width="2" points="53.85,-476.42 47.17,-468.19 47.26,-478.78 53.85,-476.42"/>
</g>
<!-- 11&#45;&gt;5 -->
<g id="edge17" class="edge">
<title>11&#45;&gt;5</title>
<path fill="none" stroke="grey" stroke-width="2" d="M172.84,-431.88C188.94,-422.64 209,-411.13 226.29,-401.21"/>
<polygon fill="grey" stroke="grey" stroke-width="2" points="228.11,-404.2 235.04,-396.19 224.63,-398.13 228.11,-404.2"/>
</g>
<!-- 12&#45;&gt;1 -->
<g id="edge2" class="edge">
<title>12&#45;&gt;1</title>
<path fill="none" stroke="grey" stroke-width="2" d="M41.59,-431.95C42.47,-405.3 44,-352.12 44,-307 44,-307 44,-307 44,-233 44,-159.8 130.88,-122.57 195.69,-104.98"/>
<polygon fill="grey" stroke="grey" stroke-width="2" points="196.69,-108.33 205.49,-102.42 194.93,-101.56 196.69,-108.33"/>
</g>
<!-- 12&#45;&gt;2 -->
<g id="edge6" class="edge">
<title>12&#45;&gt;2</title>
<path fill="none" stroke="grey" stroke-width="2" d="M50.25,-431.94C72.58,-391.63 132.63,-288.44 200,-216 209.8,-205.46 221.72,-195.17 232.66,-186.49"/>
<polygon fill="grey" stroke="grey" stroke-width="2" points="235.02,-189.09 240.78,-180.2 230.74,-183.55 235.02,-189.09"/>
</g>
<!-- 12&#45;&gt;3 -->
<g id="edge9" class="edge">
<title>12&#45;&gt;3</title>
<path fill="none" stroke="grey" stroke-width="2" d="M59.94,-431.95C71.33,-421.63 86.09,-408.16 99,-396 149.88,-348.1 208.3,-290.92 240.5,-259.21"/>
<polygon fill="grey" stroke="grey" stroke-width="2" points="243.05,-261.61 247.72,-252.09 238.14,-256.62 243.05,-261.61"/>
</g>
<!-- 12&#45;&gt;4 -->
<g id="edge11" class="edge">
<title>12&#45;&gt;4</title>
<path fill="none" stroke="grey" stroke-width="2" d="M76.75,-431.81C96.39,-421.98 120.96,-409.04 142,-396 175.07,-375.51 210.89,-349.06 235.3,-330.34"/>
<polygon fill="grey" stroke="grey" stroke-width="2" points="237.66,-332.94 243.44,-324.06 233.38,-327.4 237.66,-332.94"/>
</g>
<!-- 12&#45;&gt;5 -->
<g id="edge14" class="edge">
<title>12&#45;&gt;5</title>
<path fill="none" stroke="grey" stroke-width="2" d="M82.17,-434.89C85.15,-433.9 88.12,-432.93 91,-432 133.4,-418.34 181.91,-403.64 216.92,-393.19"/>
<polygon fill="grey" stroke="grey" stroke-width="2" points="218.29,-396.44 226.87,-390.23 216.29,-389.73 218.29,-396.44"/>
</g>
<!-- 13 -->
<g id="node14" class="node">
<title>13</title>
<path fill="none" stroke="#567bd8" stroke-width="2" d="M546,-468C546,-468 452,-468 452,-468 446,-468 440,-462 440,-456 440,-456 440,-444 440,-444 440,-438 446,-432 452,-432 452,-432 546,-432 546,-432 552,-432 558,-438 558,-444 558,-444 558,-456 558,-456 558,-462 552,-468 546,-468"/>
<text text-anchor="middle" x="499" y="-447.5" font-family="sans" font-size="10.00">render_hicpro_config</text>
</g>
<!-- 13&#45;&gt;1 -->
<g id="edge4" class="edge">
<title>13&#45;&gt;1</title>
<path fill="none" stroke="grey" stroke-width="2" d="M498.21,-431.96C497.04,-405.3 495,-352.13 495,-307 495,-307 495,-307 495,-233 495,-156.63 402.05,-119.97 334.32,-103.4"/>
<polygon fill="grey" stroke="grey" stroke-width="2" points="335.07,-99.98 324.53,-101.1 333.46,-106.79 335.07,-99.98"/>
</g>
<!-- 13&#45;&gt;2 -->
<g id="edge7" class="edge">
<title>13&#45;&gt;2</title>
<path fill="none" stroke="grey" stroke-width="2" d="M488.7,-431.75C464.19,-391.48 399.25,-289.1 330,-216 320.03,-205.47 307.97,-195.11 296.97,-186.38"/>
<polygon fill="grey" stroke="grey" stroke-width="2" points="298.85,-183.42 288.81,-180.05 294.56,-188.95 298.85,-183.42"/>
</g>
<!-- 13&#45;&gt;3 -->
<g id="edge10" class="edge">
<title>13&#45;&gt;3</title>
<path fill="none" stroke="grey" stroke-width="2" d="M479.82,-431.87C468.25,-421.52 453.24,-408.04 440,-396 386.97,-347.79 325.4,-290.94 291.25,-259.33"/>
<polygon fill="grey" stroke="grey" stroke-width="2" points="293.3,-256.45 283.58,-252.23 288.54,-261.59 293.3,-256.45"/>
</g>
<!-- 13&#45;&gt;4 -->
<g id="edge13" class="edge">
<title>13&#45;&gt;4</title>
<path fill="none" stroke="grey" stroke-width="2" d="M462.77,-431.96C442.49,-422.08 416.96,-409.04 395,-396 360.14,-375.3 322.06,-348.73 296.18,-330.03"/>
<polygon fill="grey" stroke="grey" stroke-width="2" points="298.04,-327.05 287.89,-324.01 293.92,-332.72 298.04,-327.05"/>
</g>
<!-- 13&#45;&gt;5 -->
<g id="edge18" class="edge">
<title>13&#45;&gt;5</title>
<path fill="none" stroke="grey" stroke-width="2" d="M442.06,-431.97C402.44,-420.11 350.22,-404.49 312.78,-393.29"/>
<polygon fill="grey" stroke="grey" stroke-width="2" points="313.7,-389.91 303.11,-390.4 311.69,-396.62 313.7,-389.91"/>
</g>
</g>
</svg>
