<?xml version="1.0" encoding="UTF-8" standalone="no"?>
<!DOCTYPE svg PUBLIC "-//W3C//DTD SVG 1.1//EN"
 "http://www.w3.org/Graphics/SVG/1.1/DTD/svg11.dtd">
<!-- Generated by graphviz version 2.43.0 (0)
 -->
<!-- Title: snakemake_dag Pages: 1 -->
<svg width="504pt" height="620pt"
 viewBox="0.00 0.00 503.50 620.00" xmlns="http://www.w3.org/2000/svg" xmlns:xlink="http://www.w3.org/1999/xlink">
<g id="graph0" class="graph" transform="scale(1 1) rotate(0) translate(4 616)">
<title>snakemake_dag</title>
<polygon fill="white" stroke="transparent" points="-4,4 -4,-616 499.5,-616 499.5,4 -4,4"/>
<!-- 0 -->
<g id="node1" class="node">
<title>0</title>
<path fill="none" stroke="#d85656" stroke-width="2" d="M293.5,-36C293.5,-36 263.5,-36 263.5,-36 257.5,-36 251.5,-30 251.5,-24 251.5,-24 251.5,-12 251.5,-12 251.5,-6 257.5,0 263.5,0 263.5,0 293.5,0 293.5,0 299.5,0 305.5,-6 305.5,-12 305.5,-12 305.5,-24 305.5,-24 305.5,-30 299.5,-36 293.5,-36"/>
<text text-anchor="middle" x="278.5" y="-15.5" font-family="sans" font-size="10.00">all</text>
</g>
<!-- 1 -->
<g id="node2" class="node">
<title>1</title>
<path fill="none" stroke="#d87d56" stroke-width="2" d="M326,-108C326,-108 231,-108 231,-108 225,-108 219,-102 219,-96 219,-96 219,-84 219,-84 219,-78 225,-72 231,-72 231,-72 326,-72 326,-72 332,-72 338,-78 338,-84 338,-84 338,-96 338,-96 338,-102 332,-108 326,-108"/>
<text text-anchor="middle" x="278.5" y="-87.5" font-family="sans" font-size="10.00">hicpro_contacts_iced</text>
</g>
<!-- 1&#45;&gt;0 -->
<g id="edge1" class="edge">
<title>1&#45;&gt;0</title>
<path fill="none" stroke="grey" stroke-width="2" d="M278.5,-71.7C278.5,-63.98 278.5,-54.71 278.5,-46.11"/>
<polygon fill="grey" stroke="grey" stroke-width="2" points="282,-46.1 278.5,-36.1 275,-46.1 282,-46.1"/>
</g>
<!-- 2 -->
<g id="node3" class="node">
<title>2</title>
<path fill="none" stroke="#59d856" stroke-width="2" d="M324.5,-180C324.5,-180 232.5,-180 232.5,-180 226.5,-180 220.5,-174 220.5,-168 220.5,-168 220.5,-156 220.5,-156 220.5,-150 226.5,-144 232.5,-144 232.5,-144 324.5,-144 324.5,-144 330.5,-144 336.5,-150 336.5,-156 336.5,-156 336.5,-168 336.5,-168 336.5,-174 330.5,-180 324.5,-180"/>
<text text-anchor="middle" x="278.5" y="-159.5" font-family="sans" font-size="10.00">hicpro_contacts_raw</text>
</g>
<!-- 2&#45;&gt;1 -->
<g id="edge2" class="edge">
<title>2&#45;&gt;1</title>
<path fill="none" stroke="grey" stroke-width="2" d="M278.5,-143.7C278.5,-135.98 278.5,-126.71 278.5,-118.11"/>
<polygon fill="grey" stroke="grey" stroke-width="2" points="282,-118.1 278.5,-108.1 275,-118.1 282,-118.1"/>
</g>
<!-- 3 -->
<g id="node4" class="node">
<title>3</title>
<path fill="none" stroke="#d8a456" stroke-width="2" d="M322.5,-252C322.5,-252 234.5,-252 234.5,-252 228.5,-252 222.5,-246 222.5,-240 222.5,-240 222.5,-228 222.5,-228 222.5,-222 228.5,-216 234.5,-216 234.5,-216 322.5,-216 322.5,-216 328.5,-216 334.5,-222 334.5,-228 334.5,-228 334.5,-240 334.5,-240 334.5,-246 328.5,-252 322.5,-252"/>
<text text-anchor="middle" x="278.5" y="-231.5" font-family="sans" font-size="10.00">hicpro_allvalidpairs</text>
</g>
<!-- 3&#45;&gt;2 -->
<g id="edge3" class="edge">
<title>3&#45;&gt;2</title>
<path fill="none" stroke="grey" stroke-width="2" d="M278.5,-215.7C278.5,-207.98 278.5,-198.71 278.5,-190.11"/>
<polygon fill="grey" stroke="grey" stroke-width="2" points="282,-190.1 278.5,-180.1 275,-190.1 282,-190.1"/>
</g>
<!-- 4 -->
<g id="node5" class="node">
<title>4</title>
<path fill="none" stroke="#56d87b" stroke-width="2" d="M304.5,-324C304.5,-324 252.5,-324 252.5,-324 246.5,-324 240.5,-318 240.5,-312 240.5,-312 240.5,-300 240.5,-300 240.5,-294 246.5,-288 252.5,-288 252.5,-288 304.5,-288 304.5,-288 310.5,-288 316.5,-294 316.5,-300 316.5,-300 316.5,-312 316.5,-312 316.5,-318 310.5,-324 304.5,-324"/>
<text text-anchor="middle" x="278.5" y="-303.5" font-family="sans" font-size="10.00">hicpro_pairs</text>
</g>
<!-- 4&#45;&gt;3 -->
<g id="edge4" class="edge">
<title>4&#45;&gt;3</title>
<path fill="none" stroke="grey" stroke-width="2" d="M278.5,-287.7C278.5,-279.98 278.5,-270.71 278.5,-262.11"/>
<polygon fill="grey" stroke="grey" stroke-width="2" points="282,-262.1 278.5,-252.1 275,-262.1 282,-262.1"/>
</g>
<!-- 5 -->
<g id="node6" class="node">
<title>5</title>
<path fill="none" stroke="#56c9d8" stroke-width="2" d="M304.5,-396C304.5,-396 252.5,-396 252.5,-396 246.5,-396 240.5,-390 240.5,-384 240.5,-384 240.5,-372 240.5,-372 240.5,-366 246.5,-360 252.5,-360 252.5,-360 304.5,-360 304.5,-360 310.5,-360 316.5,-366 316.5,-372 316.5,-372 316.5,-384 316.5,-384 316.5,-390 310.5,-396 304.5,-396"/>
<text text-anchor="middle" x="278.5" y="-375.5" font-family="sans" font-size="10.00">hicpro_align</text>
</g>
<!-- 5&#45;&gt;4 -->
<g id="edge5" class="edge">
<title>5&#45;&gt;4</title>
<path fill="none" stroke="grey" stroke-width="2" d="M278.5,-359.7C278.5,-351.98 278.5,-342.71 278.5,-334.11"/>
<polygon fill="grey" stroke="grey" stroke-width="2" points="282,-334.1 278.5,-324.1 275,-334.1 282,-334.1"/>
</g>
<!-- 6 -->
<g id="node7" class="node">
<title>6</title>
<path fill="none" stroke="#567bd8" stroke-width="2" d="M65,-468C65,-468 12,-468 12,-468 6,-468 0,-462 0,-456 0,-456 0,-444 0,-444 0,-438 6,-432 12,-432 12,-432 65,-432 65,-432 71,-432 77,-438 77,-444 77,-444 77,-456 77,-456 77,-462 71,-468 65,-468"/>
<text text-anchor="middle" x="38.5" y="-447.5" font-family="sans" font-size="10.00">sra_to_fastq</text>
</g>
<!-- 6&#45;&gt;5 -->
<g id="edge10" class="edge">
<title>6&#45;&gt;5</title>
<path fill="none" stroke="grey" stroke-width="2" d="M77.19,-435.03C80.33,-433.98 83.46,-432.96 86.5,-432 135.1,-416.71 191.35,-401.46 230.36,-391.28"/>
<polygon fill="grey" stroke="grey" stroke-width="2" points="231.58,-394.57 240.38,-388.67 229.82,-387.8 231.58,-394.57"/>
</g>
<!-- 7 -->
<g id="node8" class="node">
<title>7</title>
<path fill="none" stroke="#9fd856" stroke-width="2" d="M65,-540C65,-540 12,-540 12,-540 6,-540 0,-534 0,-528 0,-528 0,-516 0,-516 0,-510 6,-504 12,-504 12,-504 65,-504 65,-504 71,-504 77,-510 77,-516 77,-516 77,-528 77,-528 77,-534 71,-540 65,-540"/>
<text text-anchor="middle" x="38.5" y="-519.5" font-family="sans" font-size="10.00">prefetch_sra</text>
</g>
<!-- 7&#45;&gt;6 -->
<g id="edge11" class="edge">
<title>7&#45;&gt;6</title>
<path fill="none" stroke="grey" stroke-width="2" d="M38.5,-503.7C38.5,-495.98 38.5,-486.71 38.5,-478.11"/>
<polygon fill="grey" stroke="grey" stroke-width="2" points="42,-478.1 38.5,-468.1 35,-478.1 42,-478.1"/>
</g>
<!-- 8 -->
<g id="node9" class="node">
<title>8</title>
<path fill="none" stroke="#d8c356" stroke-width="2" d="M205.5,-468C205.5,-468 107.5,-468 107.5,-468 101.5,-468 95.5,-462 95.5,-456 95.5,-456 95.5,-444 95.5,-444 95.5,-438 101.5,-432 107.5,-432 107.5,-432 205.5,-432 205.5,-432 211.5,-432 217.5,-438 217.5,-444 217.5,-444 217.5,-456 217.5,-456 217.5,-462 211.5,-468 205.5,-468"/>
<text text-anchor="middle" x="156.5" y="-447.5" font-family="sans" font-size="10.00">restriction_fragments</text>
</g>
<!-- 8&#45;&gt;5 -->
<g id="edge6" class="edge">
<title>8&#45;&gt;5</title>
<path fill="none" stroke="grey" stroke-width="2" d="M186.34,-431.88C202.44,-422.64 222.5,-411.13 239.79,-401.21"/>
<polygon fill="grey" stroke="grey" stroke-width="2" points="241.61,-404.2 248.54,-396.19 238.13,-398.13 241.61,-404.2"/>
</g>
<!-- 9 -->
<g id="node10" class="node">
<title>9</title>
<path fill="none" stroke="#56d8a2" stroke-width="2" d="M278,-540C278,-540 189,-540 189,-540 183,-540 177,-534 177,-528 177,-528 177,-516 177,-516 177,-510 183,-504 189,-504 189,-504 278,-504 278,-504 284,-504 290,-510 290,-516 290,-516 290,-528 290,-528 290,-534 284,-540 278,-540"/>
<text text-anchor="middle" x="233.5" y="-519.5" font-family="sans" font-size="10.00">untar_tcga_genome</text>
</g>
<!-- 9&#45;&gt;8 -->
<g id="edge12" class="edge">
<title>9&#45;&gt;8</title>
<path fill="none" stroke="grey" stroke-width="2" d="M214.47,-503.7C204.96,-495.05 193.29,-484.45 182.93,-475.03"/>
<polygon fill="grey" stroke="grey" stroke-width="2" points="185.07,-472.24 175.31,-468.1 180.36,-477.42 185.07,-472.24"/>
</g>
<!-- 11 -->
<g id="node12" class="node">
<title>11</title>
<path fill="none" stroke="#c6d856" stroke-width="2" d="M309,-468C309,-468 248,-468 248,-468 242,-468 236,-462 236,-456 236,-456 236,-444 236,-444 236,-438 242,-432 248,-432 248,-432 309,-432 309,-432 315,-432 321,-438 321,-444 321,-444 321,-456 321,-456 321,-462 315,-468 309,-468"/>
<text text-anchor="middle" x="278.5" y="-447.5" font-family="sans" font-size="10.00">bowtie2_build</text>
</g>
<!-- 9&#45;&gt;11 -->
<g id="edge14" class="edge">
<title>9&#45;&gt;11</title>
<path fill="none" stroke="grey" stroke-width="2" d="M244.62,-503.7C249.86,-495.56 256.2,-485.69 261.98,-476.7"/>
<polygon fill="grey" stroke="grey" stroke-width="2" points="265.04,-478.41 267.5,-468.1 259.15,-474.62 265.04,-478.41"/>
</g>
<!-- 10 -->
<g id="node11" class="node">
<title>10</title>
<path fill="none" stroke="#56d8c9" stroke-width="2" d="M331.5,-612C331.5,-612 251.5,-612 251.5,-612 245.5,-612 239.5,-606 239.5,-600 239.5,-600 239.5,-588 239.5,-588 239.5,-582 245.5,-576 251.5,-576 251.5,-576 331.5,-576 331.5,-576 337.5,-576 343.5,-582 343.5,-588 343.5,-588 343.5,-600 343.5,-600 343.5,-606 337.5,-612 331.5,-612"/>
<text text-anchor="middle" x="291.5" y="-591.5" font-family="sans" font-size="10.00">remote_download</text>
</g>
<!-- 10&#45;&gt;9 -->
<g id="edge13" class="edge">
<title>10&#45;&gt;9</title>
<path fill="none" stroke="grey" stroke-width="2" d="M277.16,-575.7C270.21,-567.3 261.73,-557.07 254.1,-547.86"/>
<polygon fill="grey" stroke="grey" stroke-width="2" points="256.75,-545.57 247.67,-540.1 251.36,-550.04 256.75,-545.57"/>
</g>
<!-- 12 -->
<g id="node13" class="node">
<title>12</title>
<path fill="none" stroke="#78d856" stroke-width="2" d="M378.5,-540C378.5,-540 320.5,-540 320.5,-540 314.5,-540 308.5,-534 308.5,-528 308.5,-528 308.5,-516 308.5,-516 308.5,-510 314.5,-504 320.5,-504 320.5,-504 378.5,-504 378.5,-504 384.5,-504 390.5,-510 390.5,-516 390.5,-516 390.5,-528 390.5,-528 390.5,-534 384.5,-540 378.5,-540"/>
<text text-anchor="middle" x="349.5" y="-519.5" font-family="sans" font-size="10.00">install_hicpro</text>
</g>
<!-- 10&#45;&gt;12 -->
<g id="edge15" class="edge">
<title>10&#45;&gt;12</title>
<path fill="none" stroke="grey" stroke-width="2" d="M305.84,-575.7C312.79,-567.3 321.27,-557.07 328.9,-547.86"/>
<polygon fill="grey" stroke="grey" stroke-width="2" points="331.64,-550.04 335.33,-540.1 326.25,-545.57 331.64,-550.04"/>
</g>
<!-- 11&#45;&gt;5 -->
<g id="edge7" class="edge">
<title>11&#45;&gt;5</title>
<path fill="none" stroke="grey" stroke-width="2" d="M278.5,-431.7C278.5,-423.98 278.5,-414.71 278.5,-406.11"/>
<polygon fill="grey" stroke="grey" stroke-width="2" points="282,-406.1 278.5,-396.1 275,-406.1 282,-406.1"/>
</g>
<!-- 12&#45;&gt;5 -->
<g id="edge8" class="edge">
<title>12&#45;&gt;5</title>
<path fill="none" stroke="grey" stroke-width="2" d="M348.41,-503.98C346.61,-485.33 341.88,-455.01 329.5,-432 323.79,-421.39 315.36,-411.4 306.99,-403.02"/>
<polygon fill="grey" stroke="grey" stroke-width="2" points="309.38,-400.45 299.72,-396.09 304.55,-405.52 309.38,-400.45"/>
</g>
<!-- 13 -->
<g id="node14" class="node">
<title>13</title>
<path fill="none" stroke="#56a2d8" stroke-width="2" d="M483.5,-468C483.5,-468 389.5,-468 389.5,-468 383.5,-468 377.5,-462 377.5,-456 377.5,-456 377.5,-444 377.5,-444 377.5,-438 383.5,-432 389.5,-432 389.5,-432 483.5,-432 483.5,-432 489.5,-432 495.5,-438 495.5,-444 495.5,-444 495.5,-456 495.5,-456 495.5,-462 489.5,-468 483.5,-468"/>
<text text-anchor="middle" x="436.5" y="-447.5" font-family="sans" font-size="10.00">render_hicpro_config</text>
</g>
<!-- 13&#45;&gt;5 -->
<g id="edge9" class="edge">
<title>13&#45;&gt;5</title>
<path fill="none" stroke="grey" stroke-width="2" d="M397.85,-431.88C376.17,-422.27 348.95,-410.21 325.98,-400.03"/>
<polygon fill="grey" stroke="grey" stroke-width="2" points="327.31,-396.8 316.75,-395.95 324.48,-403.2 327.31,-396.8"/>
</g>
</g>
</svg>
